<?xml version="1.0" encoding="utf-8"?>
<!-- Generator: Adobe Illustrator 27.5.0, SVG Export Plug-In . SVG Version: 6.00 Build 0)  -->
<svg version="1.1" id="Layer_1" xmlns="http://www.w3.org/2000/svg" xmlns:xlink="http://www.w3.org/1999/xlink" x="0px" y="0px"
	 viewBox="0 0 500 400" style="enable-background:new 0 0 500 400;" xml:space="preserve">
<g id="XMLID_1384_">
	<g id="XMLID_514_">
		<path id="XMLID_855_" style="fill:#F2F1F7;" d="M277.303,38.749c58.525,7.856,72.585,43.19,99.375,48.705
			c40.064,8.248,82.878,14.533,73.451,64.024c-9.427,49.491-33.387,62.06-24.745,104.481c8.641,42.421,25.897,67.579-4.321,89.948
			c-30.245,22.389-65.595-2.75-117.05,7.856c-51.455,10.605-111.551,26.71-206.605-5.106
			c-95.054-31.816-29.459-79.736-33.387-117.05c-3.928-37.315-39.18-50.113-18.723-93.614
			C90.102,42.72,236.397,33.259,277.303,38.749z"/>
		<g id="XMLID_513_">
			<path style="fill:#F2F1F7;" d="M213.582,363.585c-34.744,0.001-70.044-6.154-107.702-18.758
				c-26.994-9.035-43.138-20.055-49.355-33.689c-7.205-15.801-0.201-32.733,6.572-49.107c5.125-12.391,9.966-24.094,8.821-34.972
				c-1.482-14.086-7.473-24.613-13.265-34.794c-9.363-16.455-18.207-31.998-5.381-59.271c10.446-22.213,27.163-41.327,49.688-56.811
				c18.946-13.024,41.929-23.472,68.311-31.053c47.479-13.644,94.72-14.568,114.889-11.861c35.954,4.826,55.325,20.029,70.89,32.244
				c9.82,7.707,18.302,14.363,28.543,16.472c1.792,0.369,3.591,0.734,5.39,1.1c38.291,7.775,77.886,15.816,68.725,63.916
				c-3.811,20.01-9.982,34-15.426,46.344c-8.063,18.282-14.432,32.723-9.322,57.808c1.914,9.395,4.3,18.118,6.405,25.815
				c7.501,27.424,12.921,47.239-11.053,64.986c-17.044,12.617-35.798,10.367-57.516,7.76c-17.384-2.087-37.086-4.451-59.869,0.244
				c-3.209,0.662-6.452,1.344-9.735,2.036c-24.228,5.102-51.69,10.885-83.677,11.53
				C217.539,363.565,215.561,363.585,213.582,363.585z M263.722,33.745c-23.784,0-57.805,3.199-91.982,13.02
				C131.631,58.29,78.787,82.731,54.81,133.718c-12.451,26.475-4.215,40.949,5.32,57.707c5.879,10.333,11.959,21.018,13.479,35.456
				c1.19,11.307-3.731,23.204-8.941,35.8c-6.634,16.038-13.494,32.623-6.595,47.752c6.01,13.181,21.825,23.904,48.348,32.781
				c88.904,29.758,146.025,17.73,196.421,7.117c3.285-0.692,6.53-1.375,9.742-2.037c23.053-4.752,42.903-2.37,60.414-0.267
				c21.354,2.563,39.8,4.776,56.302-7.439c23.039-17.056,18.021-35.401,10.425-63.172c-2.112-7.722-4.506-16.475-6.431-25.924
				c-5.218-25.616,1.247-40.275,9.432-58.834c5.407-12.26,11.536-26.157,15.311-45.976c4.022-21.118-1.026-35.543-15.887-45.399
				c-13.202-8.756-32.675-12.709-51.506-16.533c-1.8-0.365-3.601-0.731-5.395-1.101c-10.632-2.189-19.259-8.96-29.249-16.799
				c-15.402-12.088-34.572-27.132-70.066-31.896C280.398,34.212,272.805,33.745,263.722,33.745z"/>
		</g>
	</g>
	<g id="XMLID_1159_">
		<g id="XMLID_1314_">
			<path style="fill:#58857A;" d="M295.462,234.693l-0.736-0.184c14.462-58.083,27.973-91.978,45.179-113.334l0.591,0.476
				C323.364,142.917,309.896,176.723,295.462,234.693z"/>
		</g>
		<path id="XMLID_1313_" style="fill:#58857A;" d="M332.007,132.505c0.771-6.015,5.785-19.877,12.934-18.914
			c7.149,0.962-0.955,11.084-6.724,14.965C334.352,131.156,332.007,132.505,332.007,132.505z"/>
		<path id="XMLID_1312_" style="fill:#58857A;" d="M325.589,143.673c2.953-5.401,8.765-10.452,16.09-10.691
			c4.305-0.14,5.787,8.205-4.381,8.16C329.815,141.11,325.589,143.673,325.589,143.673z"/>
		<path id="XMLID_1311_" style="fill:#58857A;" d="M325.921,143.139c2.853-12.132-0.613-21.108-5.943-20.056
			c-5.33,1.053-2.249,8.715,1.096,11.676C324.418,137.719,325.921,143.139,325.921,143.139z"/>
		<path id="XMLID_1310_" style="fill:#58857A;" d="M319.45,156.565c6.519-9.394,14.351-10.479,17.892-8.365
			c3.54,2.115,2.711,8.871-4.7,7.584C324.786,154.42,319.45,156.565,319.45,156.565z"/>
		<path id="XMLID_1309_" style="fill:#58857A;" d="M313.55,171.516c12.672-12.527,23.503-7.4,22.612-3.396
			c-0.89,4.004-7.132,2.865-12.336,2.255C318.623,169.766,313.55,171.516,313.55,171.516z"/>
		<path id="XMLID_1308_" style="fill:#58857A;" d="M308.403,186.662c13.336-13.596,25.4-11.007,26.421-6.045
			c1.021,4.963-2.994,5.926-12.632,3.59C312.446,181.846,308.403,186.662,308.403,186.662z"/>
		<path id="XMLID_1307_" style="fill:#58857A;" d="M319.607,156.25c2.469-17.378-8.37-21.94-12.11-17.198
			c-3.74,4.742,6.571,7.951,8.656,11.751C318.237,154.603,319.607,156.25,319.607,156.25z"/>
		<path id="XMLID_1306_" style="fill:#58857A;" d="M313.998,170.427c0.3-8.927-4.167-19.901-10.426-19.912
			c-6.259-0.011-5.577,6.755-0.833,9.052C309.835,163.002,313.998,170.427,313.998,170.427z"/>
		<path id="XMLID_1305_" style="fill:#58857A;" d="M303.281,204.216c4.92-8.111,20.465-14.07,26.588-8.333
			c6.123,5.736-3.028,9.285-10.617,7.195C311.664,200.989,303.281,204.216,303.281,204.216z"/>
		<path id="XMLID_1304_" style="fill:#58857A;" d="M297.702,224.221c8.097-13.353,24.929-13.92,31.403-7.282
			c6.475,6.638-5.204,8.997-14.974,5.099C304.362,218.139,297.702,224.221,297.702,224.221z"/>
		<path id="XMLID_1303_" style="fill:#58857A;" d="M308.688,184.674c-3.22-18.858-14.634-20.473-17.492-15.868
			C288.337,173.412,308.688,184.674,308.688,184.674z"/>
		<path id="XMLID_1302_" style="fill:#58857A;" d="M302.758,203.958c0.958-14.125-10.845-24.394-17.023-20.42
			c-6.178,3.974,6.265,8.88,9.652,11.878C298.775,198.414,302.758,203.958,302.758,203.958z"/>
		<path id="XMLID_1301_" style="fill:#58857A;" d="M297.647,224.187c-3.668-14.465-17.577-29.004-22.574-22.059
			c-4.42,6.143,2.662,8.797,14.191,12.376C295.632,216.481,297.647,224.187,297.647,224.187z"/>
		<g id="XMLID_1300_">
			<path style="fill:#76A699;" d="M297.856,237.261l-0.678-0.337c15.602-31.35,28.949-52.607,42.005-66.897
				c12.252-13.409,24.938-21.587,41.136-26.516l0.22,0.725C348.479,153.992,327.615,177.466,297.856,237.261z"/>
		</g>
		<path id="XMLID_1299_" style="fill:#76A699;" d="M367.763,148.62c8.762-10.814,18.488-11.422,19.126-5.977
			C387.782,150.259,367.763,148.62,367.763,148.62z"/>
		<path id="XMLID_1298_" style="fill:#76A699;" d="M356.88,154.776c14.551-1.298,21.855,2.475,21.602,6.799
			c-0.253,4.324-4.062,4.466-11.704-0.353C359.135,156.404,356.88,154.776,356.88,154.776z"/>
		<path id="XMLID_1297_" style="fill:#76A699;" d="M358.177,153.91c5.161-7.581,5.625-18.609-2.179-18.516
			c-7.804,0.093,0.982,9.83,1.833,12.833C358.64,151.084,358.177,153.91,358.177,153.91z"/>
		<path id="XMLID_1296_" style="fill:#76A699;" d="M343.687,165.878c13.562-6.924,27.785-1.819,25.368,5.87
			c-2.417,7.689-8.993-1.784-14.423-3.559C349.201,166.415,343.687,165.878,343.687,165.878z"/>
		<path id="XMLID_1295_" style="fill:#76A699;" d="M338.647,144.752c6.731-2.462,13.52,9.909,5.715,20.406
			c0,0,0.718-6.541-5.769-11.63C332.106,148.439,335.798,145.794,338.647,144.752z"/>
		<path id="XMLID_1294_" style="fill:#76A699;" d="M328.115,184.238c7.696-10.565,21.557-9.405,26.445-3.942
			c4.887,5.463-0.19,8.995-4.227,8.769c-4.036-0.227-7.32-4.847-13.293-5.136C331.068,183.641,328.115,184.238,328.115,184.238z"/>
		<path id="XMLID_1293_" style="fill:#76A699;" d="M331.363,179.495c4.325-12.353-0.153-22.271-8.218-20.289
			c-8.065,1.982,4.077,8.605,5.896,12.772C330.86,176.145,331.363,179.495,331.363,179.495z"/>
		<path id="XMLID_1292_" style="fill:#76A699;" d="M317.747,199.6c21.003-11.572,30.965-2.048,28.357,3.624
			c-2.609,5.672-12.602-1.215-16.603-2.861C324.418,198.272,317.747,199.6,317.747,199.6z"/>
		<path id="XMLID_1291_" style="fill:#76A699;" d="M307.273,218.313c28.088-20.958,47.509,8.785,17.775,1.462
			C314.903,217.276,307.273,218.313,307.273,218.313z"/>
		<path id="XMLID_1290_" style="fill:#76A699;" d="M310.278,212.736c0.328-13.011-12.078-25.571-17.458-18.125
			c-5.38,7.445,10.951,10.745,13.56,13.883C308.989,211.632,310.278,212.736,310.278,212.736z"/>
		<path id="XMLID_1289_" style="fill:#76A699;" d="M317.747,199.6c3.953-4.534,3.88-23.262-6.25-25.295
			c-10.13-2.034-3.905,10.943,0.077,15.54C315.555,194.442,317.747,199.6,317.747,199.6z"/>
		<path id="XMLID_1183_" style="fill:#76A699;" d="M300.057,232.631c16.109-11.131,26.832,8.185,8.343,0.507
			C303.962,231.296,300.057,232.631,300.057,232.631z"/>
		<path id="XMLID_1182_" style="fill:#76A699;" d="M301.779,228.573c1.817-9.353-5.792-17.834-10.978-12.965
			c-5.186,4.869,9.095,7.923,10.201,10.546C302.108,228.777,301.779,228.573,301.779,228.573z"/>
		<g id="XMLID_1181_">
			<path style="fill:#9FC7BD;" d="M293.63,233.719l-0.756-0.065c1.665-19.215-3.656-61.094-35.714-82.068l0.415-0.635
				C289.933,172.121,295.308,214.348,293.63,233.719z"/>
		</g>
		<g id="XMLID_1180_">
			<path style="fill:#58857A;" d="M313.799,238.536l-0.405-0.641c24.03-15.188,55.632-10.606,55.948-10.557l-0.114,0.749
				C368.915,228.042,337.584,223.503,313.799,238.536z"/>
		</g>
		<path id="XMLID_1179_" style="fill:#58857A;" d="M354.312,226.985c9.716-4.618,15.576-5.306,18.983-0.167
			c3.407,5.138-4.816,5.853-10.297,3.753C357.517,228.47,354.312,226.985,354.312,226.985z"/>
		<path id="XMLID_1178_" style="fill:#58857A;" d="M338.284,228.661c15.57,0.941,24.642,8.423,22.388,15.674
			c-2.254,7.251-8.587-6.019-12.653-9.849C343.953,230.656,338.284,228.661,338.284,228.661z"/>
		<path id="XMLID_1177_" style="fill:#58857A;" d="M324.531,232.555c12.05,0.374,22.87,10.104,22.918,15.528
			s-10.345,5.712-15.08-3.146C327.633,236.079,324.531,232.555,324.531,232.555z"/>
		<path id="XMLID_1175_" style="fill:#58857A;" d="M339.672,228.515c10.342-3.019,9.117-13.27,4.702-17.417
			c-4.421-4.153-8.037-1.66-6.31,4.208c1.1,3.739,4.714,5.913,3.2,10.076C340.446,227.633,339.672,228.515,339.672,228.515z"/>
		<path id="XMLID_1173_" style="fill:#58857A;" d="M324.65,232.636c5.877-3.342,8.97-19.076-0.036-23.263
			c-8.231-3.827-10.82,3.497-3.668,10.831C325.649,225.027,324.65,232.636,324.65,232.636z"/>
		<path id="XMLID_1172_" style="fill:#9FC7BD;" d="M264.073,156.493c-2.367-4.507-12.248-14.284-12.928-8.782
			C250.465,153.212,264.073,156.493,264.073,156.493z"/>
		<path id="XMLID_1171_" style="fill:#9FC7BD;" d="M274.215,166.584c-3.94-4.42-7.817-18.977,0.452-16.882
			C282.937,151.796,274.215,166.584,274.215,166.584z"/>
		<path id="XMLID_1170_" style="fill:#9FC7BD;" d="M274.215,166.584c-10.234-3.579-21.47-7.134-19.663-0.317
			C256.359,173.084,274.215,166.584,274.215,166.584z"/>
		<path id="XMLID_1169_" style="fill:#9FC7BD;" d="M282.12,178.933c-2.063-13.013,5.146-20.957,11.007-16.636
			C298.99,166.619,282.12,178.933,282.12,178.933z"/>
		<path id="XMLID_1168_" style="fill:#9FC7BD;" d="M284.259,183.564c-5.927-5.501-19.891-12.003-22.176-4.649
			C259.797,186.268,284.259,183.564,284.259,183.564z"/>
		<path id="XMLID_1167_" style="fill:#9FC7BD;" d="M287.807,192.714c5.152-12.523,10.752-19.528,15.434-15.141
			C307.923,181.96,287.807,192.714,287.807,192.714z"/>
		<path id="XMLID_1166_" style="fill:#9FC7BD;" d="M288.326,194.632c-8.675-4.928-23.711-9.702-24.119-2.437
			C263.799,199.46,288.326,194.632,288.326,194.632z"/>
		<path id="XMLID_1165_" style="fill:#9FC7BD;" d="M291.897,207.784c1.891-12.041,13.642-20.697,16.988-13.607
			C312.232,201.266,291.897,207.784,291.897,207.784z"/>
		<path id="XMLID_1164_" style="fill:#9FC7BD;" d="M291.696,209.026c-10.663-4.111-28.075-10.93-26.518-1.876
			C266.736,216.205,291.696,209.026,291.696,209.026z"/>
		<path id="XMLID_1163_" style="fill:#9FC7BD;" d="M292.965,216.648c4.007-6.702,19.196-12.086,21.601-4.214
			C316.971,220.307,292.965,216.648,292.965,216.648z"/>
		<path id="XMLID_1162_" style="fill:#9FC7BD;" d="M293.24,223.426c-1.452-2.8-18.014-12.091-19.861-5.566
			C271.533,224.384,293.24,223.426,293.24,223.426z"/>
	</g>
	<g id="XMLID_1161_">
		<g id="XMLID_1360_">
			<path style="fill:#58857A;" d="M205.18,251.896c-5.779-59.459-14.146-94.875-27.976-118.422l0.654-0.384
				c13.889,23.648,22.286,59.156,28.077,118.733L205.18,251.896z"/>
		</g>
		<path id="XMLID_1359_" style="fill:#58857A;" d="M184.01,145.454c0.119-6.063-2.809-20.51-10.022-20.606
			c-7.213-0.096-0.68,11.104,4.458,15.789C181.888,143.776,184.01,145.454,184.01,145.454z"/>
		<path id="XMLID_1358_" style="fill:#58857A;" d="M188.722,157.443c-2.13-5.776-7.138-11.624-14.349-12.934
			c-4.238-0.77-6.927,7.268,3.137,8.714C184.917,154.288,188.722,157.443,188.722,157.443z"/>
		<path id="XMLID_1357_" style="fill:#58857A;" d="M188.472,156.865c-1.044-12.42,3.701-20.791,8.819-18.968
			c5.118,1.823,0.947,8.951-2.795,11.389C190.753,151.725,188.472,156.865,188.472,156.865z"/>
		<path id="XMLID_1356_" style="fill:#58857A;" d="M192.905,171.095c-5.071-10.249-12.66-12.47-16.472-10.897
			c-3.812,1.573-3.982,8.378,3.538,8.191C187.941,168.191,192.905,171.095,192.905,171.095z"/>
		<path id="XMLID_1355_" style="fill:#58857A;" d="M196.549,186.749c-10.699-14.249-22.164-10.766-21.87-6.674
			c0.294,4.091,6.635,3.879,11.872,4.039C191.787,184.275,196.549,186.749,196.549,186.749z"/>
		<path id="XMLID_1354_" style="fill:#58857A;" d="M199.42,202.487c-11.199-15.404-23.512-14.612-25.249-9.853
			c-1.738,4.759,2.093,6.301,11.97,5.403C196.127,197.129,199.42,202.487,199.42,202.487z"/>
		<path id="XMLID_1353_" style="fill:#58857A;" d="M192.796,170.761c0.105-17.552,11.496-20.476,14.5-15.237
			c3.005,5.239-7.666,6.902-10.285,10.355C194.393,169.332,192.796,170.761,192.796,170.761z"/>
		<path id="XMLID_1352_" style="fill:#58857A;" d="M196.266,185.607c1.012-8.875,7.039-19.076,13.232-18.169
			c6.193,0.907,4.526,7.5-0.503,9.076C201.473,178.872,196.266,185.607,196.266,185.607z"/>
		<path id="XMLID_1351_" style="fill:#58857A;" d="M201.914,220.602c-3.677-8.744-18.181-16.918-25.079-12.141
			c-6.898,4.777,1.634,9.628,9.447,8.674C194.095,216.18,201.914,220.602,201.914,220.602z"/>
		<path id="XMLID_1350_" style="fill:#58857A;" d="M204.501,241.208c-6.052-14.396-22.619-17.424-29.997-11.807
			c-7.378,5.617,3.829,9.663,14.064,7.239C198.804,234.216,204.501,241.208,204.501,241.208z"/>
		<path id="XMLID_1349_" style="fill:#58857A;" d="M199.43,200.479c5.949-18.182,17.477-18.107,19.63-13.132
			C221.212,192.321,199.43,200.479,199.43,200.479z"/>
		<path id="XMLID_1348_" style="fill:#58857A;" d="M202.469,220.423c1.123-14.113,14.304-22.541,19.832-17.704
			c5.529,4.837-7.499,7.866-11.289,10.335C207.222,215.523,202.469,220.423,202.469,220.423z"/>
		<path id="XMLID_1347_" style="fill:#58857A;" d="M204.56,241.182c5.749-13.771,21.639-26.114,25.563-18.512
			c3.471,6.724-3.923,8.311-15.852,10.162C207.682,233.855,204.56,241.182,204.56,241.182z"/>
		<g id="XMLID_1346_">
			<path style="fill:#76A699;" d="M202.436,254.085c-20.671-63.512-37.868-89.79-68.153-104.141l0.324-0.685
				c15.301,7.25,26.651,17.199,36.805,32.259c10.821,16.05,20.908,39.034,31.745,72.332L202.436,254.085z"/>
		</g>
		<path id="XMLID_1345_" style="fill:#76A699;" d="M146.278,156.153c-7.082-11.982-16.614-14.009-18.043-8.717
			C126.235,154.841,146.278,156.153,146.278,156.153z"/>
		<path id="XMLID_1344_" style="fill:#76A699;" d="M156.142,163.839c-14.204-3.417-21.981-0.755-22.365,3.559
			c-0.384,4.314,3.364,5.013,11.63,1.367S156.142,163.839,156.142,163.839z"/>
		<path id="XMLID_1343_" style="fill:#76A699;" d="M154.986,162.792c-3.993-8.256-2.836-19.232,4.87-17.996
			c7.706,1.236-2.412,9.579-3.694,12.426C154.942,159.928,154.986,162.792,154.986,162.792z"/>
		<path id="XMLID_1342_" style="fill:#76A699;" d="M167.565,176.755c-12.401-8.837-27.218-5.872-25.954,2.088
			c1.264,7.96,9.158-0.446,14.789-1.406C162.031,176.477,167.565,176.755,167.565,176.755z"/>
		<path id="XMLID_1341_" style="fill:#76A699;" d="M175.647,156.595c-6.298-3.422-14.826,7.82-8.644,19.348
			c0,0,0.249-6.576,7.411-10.659C181.577,161.201,178.313,158.044,175.647,156.595z"/>
		<path id="XMLID_1340_" style="fill:#76A699;" d="M180.277,197.199c-6.064-11.579-19.946-12.464-25.581-7.776
			c-5.635,4.688-1.13,8.926,2.896,9.294c4.026,0.368,7.952-3.721,13.902-3.132C177.443,196.175,180.277,197.199,180.277,197.199z"/>
		<path id="XMLID_1339_" style="fill:#76A699;" d="M177.759,192.031c-2.467-12.854,3.416-22.008,11.103-18.865
			c7.687,3.143-5.294,7.915-7.704,11.77C178.748,188.791,177.759,192.031,177.759,192.031z"/>
		<path id="XMLID_1338_" style="fill:#76A699;" d="M188.281,213.915c-19.08-14.525-30.33-6.565-28.581-0.572
			c1.749,5.993,12.643,0.645,16.843-0.396C181.876,211.623,188.281,213.915,188.281,213.915z"/>
		<path id="XMLID_1337_" style="fill:#76A699;" d="M195.899,233.961c-24.713-24.849-48.284,1.726-17.797-1.16
			C188.503,231.817,195.899,233.961,195.899,233.961z"/>
		<path id="XMLID_1336_" style="fill:#76A699;" d="M193.743,228.003c1.583-12.918,15.697-23.524,19.927-15.37
			c4.23,8.154-12.408,9.024-15.449,11.745C195.181,227.1,193.743,228.003,193.743,228.003z"/>
		<path id="XMLID_1335_" style="fill:#76A699;" d="M188.281,213.915c-3.245-5.064-0.428-23.579,9.891-24.105
			c10.318-0.527,2.259,11.397-2.354,15.361C191.205,209.134,188.281,213.915,188.281,213.915z"/>
		<path id="XMLID_1334_" style="fill:#76A699;" d="M200.937,249.183c-14.303-13.373-27.742,4.163-8.327-0.721
			C197.27,247.289,200.937,249.183,200.937,249.183z"/>
		<path id="XMLID_1333_" style="fill:#76A699;" d="M199.83,244.916c-0.426-9.518,8.344-16.792,12.76-11.215
			c4.416,5.577-10.158,6.504-11.637,8.936C199.474,245.07,199.83,244.916,199.83,244.916z"/>
		<g id="XMLID_1332_">
			<path style="fill:#9FC7BD;" d="M207.894,251.247l-0.757-0.047c1.178-19.407,12.685-60.39,47.798-76.588l0.318,0.688
				C220.465,191.349,209.063,231.996,207.894,251.247z"/>
		</g>
		<g id="XMLID_1331_">
			<path style="fill:#58857A;" d="M200.013,254.442c-21.241-18.286-52.735-18.461-53.294-18.461c-0.006,0-0.008-0.758-0.008-0.758
				c0.266-0.001,32.238,0.086,53.796,18.645L200.013,254.442z"/>
		</g>
		<path id="XMLID_1330_" style="fill:#58857A;" d="M161.63,237.076c-8.934-5.993-14.63-7.531-18.753-2.948
			c-4.123,4.583,3.906,6.496,9.635,5.222C158.242,238.075,161.63,237.076,161.63,237.076z"/>
		<path id="XMLID_1329_" style="fill:#58857A;" d="M177.239,241.084c-15.54-1.352-25.611,4.72-24.444,12.223
			c1.167,7.503,9.377-4.695,13.96-7.888C171.338,242.227,177.239,241.084,177.239,241.084z"/>
		<path id="XMLID_1328_" style="fill:#58857A;" d="M190.273,246.952c-11.975-1.396-24.104,6.643-24.946,12.001
			s9.396,7.167,15.378-0.901C186.687,249.983,190.273,246.952,190.273,246.952z"/>
		<path id="XMLID_1327_" style="fill:#58857A;" d="M175.887,240.736c-9.788-4.502-7.074-14.463-2.098-17.918
			c4.982-3.46,8.193-0.464,5.626,5.088c-1.636,3.538-5.53,5.159-4.643,9.498C175.251,239.75,175.887,240.736,175.887,240.736z"/>
		<path id="XMLID_1326_" style="fill:#58857A;" d="M190.143,247.015c-5.323-4.167-6.076-20.185,3.446-23.006
			c8.703-2.579,10.19,5.046,2.041,11.252C190.27,239.342,190.143,247.015,190.143,247.015z"/>
		<path id="XMLID_1325_" style="fill:#9FC7BD;" d="M247.694,179.142c3.002-4.111,14.209-12.334,14.076-6.792
			C261.636,177.891,247.694,179.142,247.694,179.142z"/>
		<path id="XMLID_1324_" style="fill:#9FC7BD;" d="M236.183,187.637c4.546-3.794,10.514-17.626,2.027-16.766
			S236.183,187.637,236.183,187.637z"/>
		<path id="XMLID_1323_" style="fill:#9FC7BD;" d="M236.183,187.637c10.648-2.04,22.283-3.91,19.497,2.569
			C252.893,196.685,236.183,187.637,236.183,187.637z"/>
		<path id="XMLID_1322_" style="fill:#9FC7BD;" d="M226.553,198.693c3.948-12.57-2.018-21.485-8.45-18.07
			C211.671,184.039,226.553,198.693,226.553,198.693z"/>
		<path id="XMLID_1321_" style="fill:#9FC7BD;" d="M223.758,202.961c6.67-4.573,21.436-8.957,22.618-1.348
			C247.559,209.222,223.758,202.961,223.758,202.961z"/>
		<path id="XMLID_1320_" style="fill:#9FC7BD;" d="M218.907,211.493c-3.26-13.143-7.773-20.893-13.048-17.24
			C200.584,197.905,218.907,211.493,218.907,211.493z"/>
		<path id="XMLID_1319_" style="fill:#9FC7BD;" d="M218.113,213.313c9.304-3.603,24.877-6.122,24.215,1.125
			C241.666,221.684,218.113,213.313,218.113,213.313z"/>
		<path id="XMLID_1318_" style="fill:#9FC7BD;" d="M212.652,225.799c-0.105-12.188-10.46-22.473-14.81-15.951
			C193.492,216.371,212.652,225.799,212.652,225.799z"/>
		<path id="XMLID_1317_" style="fill:#9FC7BD;" d="M212.669,227.058c11.15-2.504,29.374-6.696,26.506,2.032
			S212.669,227.058,212.669,227.058z"/>
		<path id="XMLID_1316_" style="fill:#9FC7BD;" d="M210.296,234.412c-2.982-7.217-17.217-14.769-20.75-7.335
			C186.013,234.512,210.296,234.412,210.296,234.412z"/>
		<path id="XMLID_1315_" style="fill:#9FC7BD;" d="M209.031,241.076c1.847-2.557,19.592-9.319,20.462-2.595
			C230.363,245.206,209.031,241.076,209.031,241.076z"/>
	</g>
	<g id="XMLID_1184_">
		<g id="XMLID_1245_">
			<g id="XMLID_1281_">
				<g id="XMLID_1288_">
					<path style="fill:#FFFFFF;" d="M301.72,188.305c-121.234,0-119.769,2.007-119.769-4.91c0-87.223-1.852-87.856,4.91-87.856
						c121.234,0,119.769-2.007,119.769,4.91v82.946C306.63,186.107,304.431,188.305,301.72,188.305z"/>
					<path style="fill:#EEE4D9;" d="M211.648,189.142c-21.833,0-27.524-0.419-29.404-2.294c-0.867-0.864-0.864-1.951-0.861-3.209
						l0.001-0.243c0-18.721-0.085-33.318-0.153-45.047c-0.188-32.385-0.232-40.079,2.105-42.43c0.94-0.946,2.195-0.946,3.524-0.946
						c27.339,0,48.066-0.1,64.721-0.181c43.285-0.209,52.292-0.253,54.754,2.204c0.867,0.865,0.864,1.951,0.861,3.209l0,0.243
						v82.946c0,3.02-2.457,5.476-5.476,5.476c-27.341,0-48.07,0.1-64.726,0.181C226.747,189.102,218.421,189.142,211.648,189.142z
						 M276.84,95.835c-6.786,0-15.095,0.04-25.253,0.089c-16.656,0.081-37.385,0.181-64.726,0.181c-1.31,0-2.142,0.03-2.72,0.611
						c-2.005,2.016-1.951,11.199-1.775,41.625c0.068,11.73,0.153,26.328,0.153,45.053l-0.001,0.246
						c-0.003,1.231,0.019,1.897,0.528,2.404c2.129,2.124,13.103,2.071,53.944,1.873c16.657-0.081,37.387-0.181,64.731-0.181
						c2.395,0,4.343-1.948,4.343-4.343l0-83.192c0.003-1.231-0.019-1.897-0.528-2.405C303.936,96.202,297.34,95.835,276.84,95.835z"
						/>
				</g>
				<g id="XMLID_1287_">
					<path style="fill:#444244;" d="M306.63,100.149H181.951c0-2.545,2.063-4.61,4.61-4.61
						C309.38,95.539,306.63,93.808,306.63,100.149z"/>
					<path style="fill:#444244;" d="M307.196,100.716H181.384v-0.566c0-2.854,2.322-5.177,5.176-5.177
						c26.463,0,46.825-0.079,63.185-0.143c46.088-0.179,54.392-0.212,56.7,2.109c0.773,0.778,0.763,1.764,0.754,2.809
						L307.196,100.716z M182.557,99.583h123.509c0.006-0.926-0.027-1.445-0.425-1.845c-1.973-1.985-13.392-1.939-55.892-1.775
						c-16.361,0.064-36.724,0.143-63.189,0.143C184.523,96.106,182.833,97.62,182.557,99.583z"/>
				</g>
				<g id="XMLID_1282_">
					<path id="XMLID_1286_" style="fill:#BEC0C2;" d="M301.253,99.087c1.388,0,2.02,0.136,2.02-0.466c0-1.388,0.136-2.02-0.466-2.02
						c-1.388,0-2.02-0.136-2.02,0.466C300.788,98.455,300.652,99.087,301.253,99.087z"/>
					<g id="XMLID_1283_">
						<g id="XMLID_1285_">
							<path style="fill:#FFFFFF;" d="M301.306,98.852c-0.072,0-0.145-0.028-0.2-0.083c-0.111-0.111-0.111-0.29,0-0.401l1.449-1.45
								c0.111-0.111,0.29-0.111,0.401,0c0.111,0.111,0.111,0.29,0,0.401l-1.45,1.45C301.451,98.825,301.378,98.852,301.306,98.852z"
								/>
						</g>
						<g id="XMLID_1284_">
							<path style="fill:#FFFFFF;" d="M302.755,98.852c-0.072,0-0.145-0.028-0.2-0.083l-1.449-1.45c-0.111-0.111-0.111-0.29,0-0.401
								c0.111-0.111,0.29-0.111,0.4,0l1.45,1.45c0.111,0.111,0.111,0.29,0,0.401C302.9,98.825,302.828,98.852,302.755,98.852z"/>
						</g>
					</g>
				</g>
			</g>
			<g id="XMLID_1246_">
				<g id="XMLID_1267_">
					<g id="XMLID_1277_">
						<g id="XMLID_1280_">
							<path style="fill:#EEE4D9;" d="M200.735,107.856h-12.29c-0.156,0-0.283-0.127-0.283-0.283c0-0.157,0.127-0.283,0.283-0.283
								h12.29c0.157,0,0.283,0.127,0.283,0.283C201.019,107.729,200.892,107.856,200.735,107.856z"/>
						</g>
						<g id="XMLID_1279_">
							<path style="fill:#EEE4D9;" d="M200.735,176.554h-12.29c-0.156,0-0.283-0.127-0.283-0.283c0-0.157,0.127-0.283,0.283-0.283
								h12.29c0.157,0,0.283,0.127,0.283,0.283C201.019,176.428,200.892,176.554,200.735,176.554z"/>
						</g>
						<g id="XMLID_1278_">
							<path style="fill:#EEE4D9;" d="M188.446,176.554c-0.156,0-0.283-0.127-0.283-0.283v-68.698c0-0.157,0.127-0.283,0.283-0.283
								c0.157,0,0.283,0.127,0.283,0.283v68.698C188.729,176.428,188.602,176.554,188.446,176.554z"/>
						</g>
					</g>
					<g id="XMLID_1273_">
						<g id="XMLID_1276_">
							<path style="fill:#EEE4D9;" d="M205.755,114.147h-10.039c-0.157,0-0.283-0.127-0.283-0.283c0-0.156,0.127-0.283,0.283-0.283
								h10.039c0.157,0,0.283,0.127,0.283,0.283C206.038,114.02,205.911,114.147,205.755,114.147z"/>
						</g>
						<g id="XMLID_1275_">
							<path style="fill:#EEE4D9;" d="M205.755,170.264h-10.039c-0.157,0-0.283-0.127-0.283-0.283s0.127-0.283,0.283-0.283h10.039
								c0.157,0,0.283,0.127,0.283,0.283S205.911,170.264,205.755,170.264z"/>
						</g>
						<g id="XMLID_1274_">
							<path style="fill:#EEE4D9;" d="M195.716,170.264c-0.157,0-0.283-0.127-0.283-0.283v-56.117c0-0.156,0.127-0.283,0.283-0.283
								c0.157,0,0.283,0.127,0.283,0.283v56.117C195.999,170.137,195.872,170.264,195.716,170.264z"/>
						</g>
					</g>
					<g id="XMLID_1269_">
						<g id="XMLID_1272_">
							<path style="fill:#EEE4D9;" d="M211.924,122.498h-7.051c-0.157,0-0.283-0.127-0.283-0.283c0-0.156,0.127-0.283,0.283-0.283
								h7.051c0.157,0,0.283,0.127,0.283,0.283C212.207,122.371,212.08,122.498,211.924,122.498z"/>
						</g>
						<g id="XMLID_1271_">
							<path style="fill:#EEE4D9;" d="M211.924,161.912h-7.051c-0.157,0-0.283-0.127-0.283-0.283s0.127-0.283,0.283-0.283h7.051
								c0.157,0,0.283,0.127,0.283,0.283S212.08,161.912,211.924,161.912z"/>
						</g>
						<g id="XMLID_1270_">
							<path style="fill:#EEE4D9;" d="M204.873,161.912c-0.157,0-0.283-0.127-0.283-0.283v-39.414c0-0.156,0.127-0.283,0.283-0.283
								c0.157,0,0.283,0.127,0.283,0.283v39.414C205.156,161.786,205.029,161.912,204.873,161.912z"/>
						</g>
					</g>
					<g id="XMLID_1268_">
						<path style="fill:#EEE4D9;" d="M212.916,161.912c-0.157,0-0.283-0.127-0.283-0.283v-9.759c0-0.157,0.127-0.283,0.283-0.283
							c0.157,0,0.283,0.127,0.283,0.283v9.759C213.199,161.786,213.073,161.912,212.916,161.912z"/>
					</g>
					<g id="XMLID_1255_">
						<path style="fill:#EEE4D9;" d="M215.214,132.891h-10.342c-0.157,0-0.283-0.127-0.283-0.283c0-0.157,0.127-0.283,0.283-0.283
							h10.342c0.157,0,0.283,0.127,0.283,0.283C215.498,132.764,215.371,132.891,215.214,132.891z"/>
					</g>
				</g>
				<g id="XMLID_1247_">
					<path id="XMLID_1266_" style="fill:#9EBFD8;" d="M214.842,109.832c-24.379,0-23.683,0.29-23.683-0.678
						c0-3.052-0.199-3.841,0.678-3.841c24.379,0,23.683-0.29,23.683,0.678C215.52,109.043,215.719,109.832,214.842,109.832z"/>
					<path id="XMLID_1265_" style="fill:#CC882A;" d="M224.418,116.337c-24.379,0-23.683,0.29-23.683-0.678
						c0-3.052-0.199-3.841,0.678-3.841c24.379,0,23.683-0.29,23.683,0.678C225.097,115.548,225.296,116.337,224.418,116.337z"/>
					<path id="XMLID_1264_" style="fill:#D6723A;" d="M214.842,124.474c-6.556,0-7.088,0.226-7.088-0.678
						c0-3.052-0.199-3.841,0.678-3.841c6.556,0,7.088-0.226,7.088,0.678C215.52,123.685,215.719,124.474,214.842,124.474z"/>
					<path id="XMLID_1258_" style="fill:#D6723A;" d="M216.121,163.888c-6.556,0-7.088,0.226-7.088-0.678
						c0-3.052-0.199-3.841,0.678-3.841c6.557,0,7.088-0.226,7.088,0.678C216.799,163.099,216.998,163.888,216.121,163.888z"/>
					<path id="XMLID_1257_" style="fill:#D6723A;" d="M216.121,154.214c-6.556,0-7.088,0.226-7.088-0.678
						c0-3.052-0.199-3.841,0.678-3.841c6.557,0,7.088-0.226,7.088,0.678C216.799,153.425,216.998,154.214,216.121,154.214z"/>
					<path id="XMLID_1254_" style="fill:#CC882A;" d="M219.257,172.125c-18.902,0-18.521,0.289-18.521-0.678
						c0-3.052-0.199-3.841,0.678-3.841h17.843c0.374,0,0.678,0.304,0.678,0.678v3.162
						C219.935,171.822,219.631,172.125,219.257,172.125z"/>
					<path id="XMLID_1259_" style="fill:#CC882A;" d="M241.371,172.125h-17.843c-0.375,0-0.678-0.304-0.678-0.678v-3.162
						c0-0.375,0.304-0.678,0.678-0.678h17.843c0.375,0,0.678,0.304,0.678,0.678v3.162
						C242.049,171.822,241.745,172.125,241.371,172.125z"/>
					<path id="XMLID_1260_" style="fill:#D6723A;" d="M265.693,144.7H247.85c-0.374,0-0.678-0.304-0.678-0.678
						c0-3.052-0.199-3.841,0.678-3.841h17.843c0.375,0,0.678,0.304,0.678,0.678v3.162C266.371,144.396,266.068,144.7,265.693,144.7z
						"/>
					<path id="XMLID_1253_" style="fill:#9EBFD8;" d="M204.194,178.53c-11.255,0-11.502,0.257-11.502-0.678
						c0-3.052-0.2-3.841,0.678-3.841c11.255,0,11.503-0.257,11.503,0.678v3.162C204.873,178.227,204.569,178.53,204.194,178.53z"/>
					<path id="XMLID_1252_" style="fill:#CC882A;" d="M262.064,109.832c-44.667,0-42.484,0.313-42.484-0.678
						c0-3.052-0.199-3.841,0.678-3.841c44.666,0,42.484-0.313,42.484,0.678v3.162C262.742,109.529,262.438,109.832,262.064,109.832z
						"/>
					<path id="XMLID_1251_" style="fill:#9EBFD8;" d="M254.043,154.214c-35.742,0-34.109,0.275-34.109-0.608
						c0-3.273-0.179-3.911,0.608-3.911h33.5c0.336,0,0.608,0.272,0.608,0.608v3.302
						C254.652,153.942,254.379,154.214,254.043,154.214z"/>
					<path id="XMLID_1249_" style="fill:#9EBFD8;" d="M250.238,134.867c-44.666,0-42.484,0.313-42.484-0.678
						c0-3.052-0.199-3.841,0.678-3.841c44.667,0,42.484-0.313,42.484,0.678v3.163C250.916,134.563,250.612,134.867,250.238,134.867z
						"/>
					<path id="XMLID_1248_" style="fill:#CC882A;" d="M280.828,109.832c-10.335,0-10.181,0.165-10.181-0.406
						c0-3.689-0.16-4.112,0.406-4.112c10.335,0,10.181-0.165,10.181,0.406C281.235,109.409,281.395,109.832,280.828,109.832z"/>
					<path id="XMLID_1250_" style="fill:#D6723A;" d="M293.522,109.832c-10.335,0-10.181,0.165-10.181-0.406
						c0-3.689-0.16-4.112,0.406-4.112c10.335,0,10.181-0.165,10.181,0.406C293.928,109.409,294.089,109.832,293.522,109.832z"/>
				</g>
			</g>
		</g>
		<g id="XMLID_1211_">
			<g id="XMLID_1237_">
				<g id="XMLID_1244_">
					<path style="fill:#FFFFFF;" d="M347.163,265.991c-105.81,0-103.741,1.618-103.741-3.869c0-61.8-1.46-62.857,3.869-62.857
						c105.811,0,103.742-1.618,103.742,3.869v58.988C351.032,264.259,349.3,265.991,347.163,265.991z"/>
					<path style="fill:#EEE4D9;" d="M268.137,266.781c-18.767,0-23.091-0.341-24.604-1.858c-0.693-0.695-0.686-1.57-0.68-2.495
						l0.002-0.305c0-13.24-0.066-23.611-0.12-31.943c-0.149-23.277-0.185-28.807,1.669-30.672c0.743-0.748,1.706-0.807,2.887-0.807
						c24.207,0,42.388-0.083,56.997-0.15c37.834-0.173,44.65-0.204,46.633,1.784c0.693,0.695,0.686,1.569,0.679,2.495l-0.002,0.305
						v58.988c0,2.445-1.99,4.435-4.435,4.435c-24.207,0-42.389,0.083-56.999,0.149C281.196,266.748,273.968,266.781,268.137,266.781
						z M326.052,199.61c-5.826,0-12.982,0.033-21.759,0.073c-14.611,0.067-32.794,0.15-57.003,0.15
						c-1.116,0-1.681,0.068-2.084,0.473c-1.52,1.531-1.475,8.671-1.339,29.867c0.054,8.334,0.12,18.707,0.12,31.951l-0.002,0.314
						c-0.007,0.872,0.006,1.343,0.349,1.687c1.648,1.653,11.006,1.609,45.824,1.451c14.611-0.067,32.794-0.15,57.004-0.15
						c1.821,0,3.302-1.481,3.302-3.302l0.002-59.302c0.007-0.872-0.006-1.343-0.348-1.687
						C348.886,199.898,343.337,199.61,326.052,199.61z"/>
				</g>
				<g id="XMLID_1243_">
					<path style="fill:#444244;" d="M351.032,202.582h-107.61c0-1.832,1.485-3.316,3.316-3.316
						C354.737,199.266,351.032,198.011,351.032,202.582z"/>
					<path style="fill:#444244;" d="M351.599,203.149H242.855v-0.567c0-2.141,1.742-3.882,3.883-3.882
						c23.436,0,41.33-0.058,55.708-0.105c40.673-0.132,46.924-0.152,48.639,1.606c0.561,0.575,0.541,1.277,0.521,1.957
						c-0.004,0.135-0.008,0.277-0.008,0.424V203.149z M244.047,202.016h106.43c0.014-0.537,0-0.816-0.202-1.024
						c-1.38-1.415-11.22-1.384-47.824-1.264c-14.379,0.047-32.273,0.105-55.711,0.105
						C245.416,199.833,244.309,200.771,244.047,202.016z"/>
				</g>
				<g id="XMLID_1238_">
					<path id="XMLID_1242_" style="fill:#BEC0C2;" d="M346.357,201.818c0.931,0,1.778,0.193,1.778-0.367
						c0-0.675,0.157-1.421-0.367-1.421c-0.931,0-1.778-0.193-1.778,0.367C345.99,201.072,345.832,201.818,346.357,201.818z"/>
					<g id="XMLID_1239_">
						<g id="XMLID_1241_">
							<path style="fill:#FFFFFF;" d="M346.437,201.729c-0.081,0-0.161-0.035-0.217-0.102c-0.1-0.12-0.084-0.299,0.036-0.399
								l1.251-1.043c0.12-0.1,0.298-0.085,0.399,0.036c0.1,0.12,0.084,0.299-0.036,0.399l-1.251,1.042
								C346.565,201.707,346.501,201.729,346.437,201.729z"/>
						</g>
						<g id="XMLID_1240_">
							<path style="fill:#FFFFFF;" d="M347.688,201.729c-0.064,0-0.128-0.021-0.181-0.066l-1.251-1.042
								c-0.12-0.1-0.136-0.279-0.036-0.399c0.101-0.12,0.279-0.135,0.399-0.036l1.251,1.043c0.12,0.1,0.136,0.279,0.036,0.399
								C347.85,201.694,347.769,201.729,347.688,201.729z"/>
						</g>
					</g>
				</g>
			</g>
			<g id="XMLID_1212_">
				<g id="XMLID_1230_" style="opacity:0.8;">
					<path id="XMLID_1377_" style="fill:#514342;" d="M286.48,260.754c0-1.839-0.185-2.698,0.628-2.698
						c1.839,0,2.698-0.185,2.698,0.628c0,1.839,0.185,2.698-0.628,2.698C287.339,261.381,286.48,261.566,286.48,260.754z"/>
					<path id="XMLID_1376_" style="fill:#514342;" d="M279.167,260.754c0-1.839-0.185-2.698,0.628-2.698
						c1.839,0,2.698-0.185,2.698,0.628c0,1.839,0.185,2.698-0.628,2.698C280.026,261.381,279.167,261.566,279.167,260.754z"/>
					<path id="XMLID_1375_" style="fill:#514342;" d="M271.379,260.754c0-1.839-0.184-2.698,0.628-2.698
						c1.839,0,2.698-0.185,2.698,0.628c0,1.839,0.185,2.698-0.628,2.698C272.238,261.381,271.379,261.566,271.379,260.754z"/>
					<path id="XMLID_1374_" style="fill:#514342;" d="M264.998,260.754c0-1.839-0.185-2.698,0.628-2.698
						c1.839,0,2.698-0.185,2.698,0.628c0,1.839,0.185,2.698-0.628,2.698C265.857,261.381,264.998,261.566,264.998,260.754z"/>
					<path id="XMLID_1373_" style="fill:#514342;" d="M257.534,260.754c0-1.839-0.184-2.698,0.628-2.698
						c1.839,0,2.698-0.185,2.698,0.628c0,1.839,0.185,2.698-0.628,2.698C258.393,261.381,257.534,261.566,257.534,260.754z"/>
				</g>
				<path id="XMLID_1226_" style="fill:#9EBFD8;" d="M271.217,210.601c-13.23,0-13.683,0.362-13.683-0.995
					c0-1.007-0.205-2.33,0.996-2.33c13.23,0,13.683-0.362,13.683,0.995C272.212,209.278,272.417,210.601,271.217,210.601z"/>
				<path id="XMLID_1225_" style="opacity:0.8;fill:#514342;" d="M320.27,210.601c-45.753,0-44.212,0.454-44.212-0.995
					c0-1.007-0.205-2.33,0.996-2.33c45.753,0,44.211-0.454,44.211,0.995v1.335C321.265,210.155,320.82,210.601,320.27,210.601z"/>
				<path id="XMLID_1224_" style="opacity:0.8;fill:#514342;" d="M320.27,225.227c-45.753,0-44.212,0.454-44.212-0.995
					c0-1.007-0.205-2.33,0.996-2.33h43.216c0.55,0,0.995,0.446,0.995,0.995v1.334C321.265,224.781,320.82,225.227,320.27,225.227z"
					/>
				<path id="XMLID_1223_" style="opacity:0.8;fill:#514342;" d="M320.27,239.853h-43.216c-1.436,0-1.435-3.326,0-3.326h43.216
					c0.55,0,0.995,0.446,0.995,0.995v1.335C321.265,239.407,320.82,239.853,320.27,239.853z"/>
				<path id="XMLID_1222_" style="opacity:0.8;fill:#514342;" d="M320.27,254.479c-45.753,0-44.212,0.454-44.212-0.995
					c0-1.007-0.205-2.33,0.996-2.33c45.753,0,44.211-0.454,44.211,0.995C321.265,253.156,321.47,254.479,320.27,254.479z"/>
				<path id="XMLID_1221_" style="fill:#9EBFD8;" d="M271.217,217.914c-13.23,0-13.683,0.362-13.683-0.995
					c0-1.007-0.205-2.33,0.996-2.33c13.23,0,13.683-0.362,13.683,0.995C272.212,216.591,272.417,217.914,271.217,217.914z"/>
				<path id="XMLID_1220_" style="fill:#9EBFD8;" d="M271.217,225.227c-13.23,0-13.683,0.362-13.683-0.995
					c0-1.007-0.205-2.33,0.996-2.33c13.23,0,13.683-0.362,13.683,0.995C272.212,223.904,272.417,225.227,271.217,225.227z"/>
				<path id="XMLID_1219_" style="fill:#9EBFD8;" d="M271.217,232.54c-13.23,0-13.683,0.362-13.683-0.995
					c0-1.007-0.205-2.33,0.996-2.33c13.23,0,13.683-0.362,13.683,0.995C272.212,231.217,272.417,232.54,271.217,232.54z"/>
				<path id="XMLID_1218_" style="fill:#9EBFD8;" d="M271.217,239.853c-13.23,0-13.683,0.362-13.683-0.995
					c0-1.007-0.205-2.33,0.996-2.33c13.23,0,13.683-0.362,13.683,0.995v1.335C272.212,239.407,271.766,239.853,271.217,239.853z"/>
				<path id="XMLID_1217_" style="fill:#9EBFD8;" d="M271.217,247.166c-13.23,0-13.683,0.362-13.683-0.995
					c0-1.007-0.205-2.33,0.996-2.33c13.23,0,13.683-0.362,13.683,0.996C272.212,245.843,272.417,247.166,271.217,247.166z"/>
				<path id="XMLID_1216_" style="fill:#9EBFD8;" d="M271.217,254.479c-13.23,0-13.683,0.362-13.683-0.995
					c0-1.007-0.205-2.33,0.996-2.33c13.23,0,13.683-0.362,13.683,0.995C272.212,253.156,272.417,254.479,271.217,254.479z"/>
				<path id="XMLID_1215_" style="fill:#9EBFD8;" d="M335.924,217.914c-13.23,0-13.683,0.362-13.683-0.995
					c0-1.007-0.205-2.33,0.995-2.33c13.23,0,13.683-0.362,13.683,0.995C336.92,216.591,337.125,217.914,335.924,217.914z"/>
				<path id="XMLID_1214_" style="fill:#9EBFD8;" d="M335.924,232.54c-13.23,0-13.683,0.362-13.683-0.995
					c0-1.007-0.205-2.33,0.995-2.33c13.23,0,13.683-0.362,13.683,0.995C336.92,231.217,337.125,232.54,335.924,232.54z"/>
				<path id="XMLID_1213_" style="fill:#9EBFD8;" d="M335.924,247.166c-13.23,0-13.683,0.362-13.683-0.995
					c0-1.007-0.205-2.33,0.995-2.33c13.23,0,13.683-0.362,13.683,0.996C336.92,245.843,337.125,247.166,335.924,247.166z"/>
				<path id="XMLID_1229_" style="fill:#D6723A;" d="M303.704,217.951h-12.687c-0.55,0-0.996-0.446-0.996-0.995v-1.335
					c0-0.55,0.446-0.995,0.996-0.995h12.687c0.55,0,0.995,0.446,0.995,0.995v1.335C304.699,217.505,304.254,217.951,303.704,217.951
					z"/>
				<path id="XMLID_1228_" style="fill:#D6723A;" d="M303.704,232.577c-13.23,0-13.683,0.362-13.683-0.995
					c0-1.007-0.205-2.33,0.996-2.33h12.687c0.55,0,0.995,0.446,0.995,0.995v1.334C304.699,232.131,304.254,232.577,303.704,232.577z
					"/>
				<path id="XMLID_1227_" style="fill:#D6723A;" d="M303.704,247.203c-13.23,0-13.683,0.362-13.683-0.995
					c0-1.007-0.205-2.33,0.996-2.33c13.23,0,13.683-0.362,13.683,0.995C304.699,245.88,304.904,247.203,303.704,247.203z"/>
			</g>
		</g>
		<g id="XMLID_1185_">
			<g id="XMLID_1203_">
				<g id="XMLID_1210_">
					<path style="fill:#FFFFFF;" d="M377.905,221.646c-114.805,0-112.07,1.6-112.07-4.179v-63.724c0-2.308,1.871-4.179,4.179-4.179
						c114.805,0,112.07-1.6,112.07,4.179v63.724C382.084,219.775,380.213,221.646,377.905,221.646z"/>
					<path style="fill:#EEE4D9;" d="M294.32,222.377c-21.775,0-26.715-0.354-28.336-1.987c-0.701-0.705-0.69-1.594-0.68-2.535
						l0.003-0.388v-63.724c0-2.595,2.111-4.706,4.707-4.706c25.02,0,44.17-0.075,59.557-0.135
						c42.589-0.168,50.264-0.196,52.363,1.919c0.701,0.705,0.69,1.594,0.68,2.535l-0.003,0.388v63.724
						c0,2.595-2.111,4.706-4.707,4.706c-25.023,0-44.175,0.075-59.563,0.135C308.639,222.346,300.745,222.377,294.32,222.377z
						 M353.157,149.889c-6.391,0-14.16,0.03-23.582,0.067c-15.388,0.06-34.539,0.135-59.561,0.135c-2.014,0-3.652,1.639-3.652,3.652
						l-0.003,64.124c-0.01,0.912,0.002,1.405,0.374,1.78c1.789,1.801,12.341,1.759,51.606,1.607
						c15.389-0.06,34.542-0.135,59.567-0.135c2.014,0,3.652-1.638,3.652-3.652l0.003-64.124c0.01-0.912-0.002-1.405-0.373-1.78
						C379.827,150.194,373.403,149.889,353.157,149.889z"/>
				</g>
				<g id="XMLID_1209_">
					<path style="fill:#444244;" d="M382.084,153.147H265.835c0-1.978,1.604-3.582,3.582-3.582
						C385.916,149.564,382.084,148.209,382.084,153.147z"/>
					<path style="fill:#444244;" d="M382.611,153.673H265.307v-0.527c0-2.266,1.844-4.109,4.11-4.109
						c25.273,0,44.582-0.063,60.098-0.113c42.976-0.14,50.719-0.165,52.558,1.716c0.584,0.598,0.565,1.309,0.546,2.064
						c-0.003,0.141-0.007,0.289-0.007,0.443V153.673z M266.407,152.62h115.159c0.016-0.635,0.005-0.984-0.247-1.243
						c-1.527-1.562-11.178-1.531-51.801-1.399c-15.516,0.05-34.826,0.113-60.101,0.113
						C267.912,150.091,266.658,151.185,266.407,152.62z"/>
				</g>
				<g id="XMLID_1204_">
					<path id="XMLID_1208_" style="fill:#BEC0C2;" d="M377.033,152.321c1.191,0,1.921,0.17,1.921-0.396
						c0-0.73,0.17-1.535-0.396-1.535c-1.191,0-1.921-0.17-1.921,0.396C376.637,151.516,376.467,152.321,377.033,152.321z"/>
					<g id="XMLID_1205_">
						<g id="XMLID_1207_">
							<path style="fill:#FFFFFF;" d="M377.12,152.182c-0.075,0-0.15-0.032-0.203-0.095c-0.093-0.112-0.078-0.278,0.034-0.371
								l1.352-1.126c0.111-0.092,0.278-0.079,0.371,0.034c0.093,0.112,0.078,0.278-0.034,0.371l-1.352,1.126
								C377.239,152.162,377.179,152.182,377.12,152.182z"/>
						</g>
						<g id="XMLID_1206_">
							<path style="fill:#FFFFFF;" d="M378.472,152.182c-0.06,0-0.12-0.02-0.169-0.061l-1.352-1.126
								c-0.112-0.093-0.127-0.26-0.034-0.371c0.094-0.112,0.26-0.126,0.371-0.034l1.352,1.126c0.112,0.093,0.127,0.26,0.034,0.371
								C378.622,152.15,378.547,152.182,378.472,152.182z"/>
						</g>
					</g>
				</g>
				<g id="XMLID_1186_">
					<g id="XMLID_1367_">
						<g id="XMLID_1370_">
							<path style="fill:#EEE4D9;" d="M285.539,159.079h-10.187c-0.13,0-0.235-0.105-0.235-0.235c0-0.13,0.105-0.235,0.235-0.235
								h10.187c0.129,0,0.235,0.105,0.235,0.235C285.773,158.974,285.668,159.079,285.539,159.079z"/>
						</g>
						<g id="XMLID_1369_">
							<path style="fill:#EEE4D9;" d="M285.539,216.022h-10.187c-0.13,0-0.235-0.105-0.235-0.235s0.105-0.235,0.235-0.235h10.187
								c0.129,0,0.235,0.105,0.235,0.235S285.668,216.022,285.539,216.022z"/>
						</g>
						<g id="XMLID_1368_">
							<path style="fill:#EEE4D9;" d="M275.352,216.022c-0.13,0-0.235-0.105-0.235-0.235v-56.943c0-0.13,0.105-0.235,0.235-0.235
								c0.129,0,0.235,0.105,0.235,0.235v56.943C275.587,215.917,275.481,216.022,275.352,216.022z"/>
						</g>
					</g>
					<g id="XMLID_1262_">
						<g id="XMLID_1362_">
							<path style="fill:#EEE4D9;" d="M285.181,171.215h-5.845c-0.13,0-0.235-0.105-0.235-0.235c0-0.13,0.105-0.235,0.235-0.235
								h5.845c0.129,0,0.235,0.105,0.235,0.235C285.416,171.11,285.311,171.215,285.181,171.215z"/>
						</g>
						<g id="XMLID_1361_">
							<path style="fill:#EEE4D9;" d="M285.181,203.885h-5.845c-0.13,0-0.235-0.105-0.235-0.235c0-0.129,0.105-0.234,0.235-0.234
								h5.845c0.129,0,0.235,0.105,0.235,0.234C285.416,203.779,285.311,203.885,285.181,203.885z"/>
						</g>
						<g id="XMLID_1263_">
							<path style="fill:#EEE4D9;" d="M279.337,203.885c-0.13,0-0.235-0.105-0.235-0.235v-32.669c0-0.13,0.105-0.235,0.235-0.235
								c0.129,0,0.234,0.105,0.234,0.235v32.669C279.571,203.779,279.466,203.885,279.337,203.885z"/>
						</g>
					</g>
					<g id="XMLID_1256_">
						<path style="fill:#EEE4D9;" d="M287.909,179.83h-8.572c-0.13,0-0.235-0.105-0.235-0.235c0-0.13,0.105-0.235,0.235-0.235h8.572
							c0.129,0,0.235,0.105,0.235,0.235C288.144,179.725,288.038,179.83,287.909,179.83z"/>
					</g>
					<path id="XMLID_1201_" style="fill:#9EBFD8;" d="M297.232,160.717h-19.069c-0.31,0-0.562-0.252-0.562-0.562v-2.621
						c0-0.311,0.252-0.562,0.562-0.562c20.202,0,19.631-0.24,19.631,0.562v2.621C297.794,160.465,297.542,160.717,297.232,160.717z"
						/>
					<path id="XMLID_1199_" style="fill:#D6723A;" d="M287.6,172.853h-5.313c-0.31,0-0.562-0.252-0.562-0.562v-2.621
						c0-0.311,0.252-0.562,0.562-0.562h5.313c0.31,0,0.562,0.252,0.562,0.562v2.621C288.162,172.602,287.911,172.853,287.6,172.853z
						"/>
					<path id="XMLID_1193_" style="fill:#9EBFD8;" d="M288.406,217.66h-8.972c-0.31,0-0.562-0.252-0.562-0.562v-2.621
						c0-0.311,0.252-0.562,0.562-0.562h8.972c0.31,0,0.562,0.252,0.562,0.562v2.621C288.968,217.408,288.716,217.66,288.406,217.66z
						"/>
					<g id="XMLID_1200_">
						<path style="fill:#EEE4D9;" d="M339.335,179.83h-23.739c-0.129,0-0.235-0.105-0.235-0.235c0-0.13,0.105-0.235,0.235-0.235
							h23.739c0.13,0,0.235,0.105,0.235,0.235C339.569,179.725,339.464,179.83,339.335,179.83z"/>
					</g>
					<path id="XMLID_1192_" style="fill:#CC882A;" d="M336.373,160.717c-36.981,0-35.214,0.263-35.214-0.562
						c0-2.455-0.171-3.183,0.562-3.183c36.981,0,35.214-0.263,35.214,0.562C336.935,159.989,337.105,160.717,336.373,160.717z"/>
					<path id="XMLID_1191_" style="fill:#9EBFD8;" d="M310.687,205.523h-27.768c-0.278,0-0.504-0.226-0.504-0.504v-2.737
						c0-0.278,0.226-0.504,0.504-0.504h27.768c0.279,0,0.504,0.226,0.504,0.504v2.737
						C311.192,205.297,310.966,205.523,310.687,205.523z"/>
					<path id="XMLID_1190_" style="fill:#9EBFD8;" d="M316.939,181.467h-34.652c-0.31,0-0.562-0.252-0.562-0.562v-2.621
						c0-0.31,0.252-0.562,0.562-0.562h34.652c0.31,0,0.562,0.252,0.562,0.562v2.621C317.502,181.216,317.25,181.467,316.939,181.467
						z"/>
					<g id="XMLID_1261_">
						<path style="fill:#EEE4D9;" d="M337.257,204.938h-10.521c-0.13,0-0.235-0.105-0.235-0.235s0.105-0.235,0.235-0.235h10.521
							c0.13,0,0.235,0.105,0.235,0.235S337.386,204.938,337.257,204.938z"/>
					</g>
					<g id="XMLID_1363_">
						<path style="fill:#EEE4D9;" d="M337.257,196.613h-10.521c-0.13,0-0.235-0.105-0.235-0.235s0.105-0.235,0.235-0.235h10.521
							c0.13,0,0.235,0.105,0.235,0.235S337.386,196.613,337.257,196.613z"/>
					</g>
					<g id="XMLID_1364_">
						<path style="fill:#EEE4D9;" d="M337.257,188.287h-10.521c-0.13,0-0.235-0.105-0.235-0.235c0-0.13,0.105-0.235,0.235-0.235
							h10.521c0.13,0,0.235,0.105,0.235,0.235C337.491,188.182,337.386,188.287,337.257,188.287z"/>
					</g>
					<path id="XMLID_1189_" style="fill:#CC882A;" d="M330.786,181.6c-8.113,0-8.439,0.214-8.439-0.337
						c0-2.611-0.214-3.409,0.337-3.409c8.113,0,8.439-0.214,8.439,0.337C331.123,180.803,331.337,181.6,330.786,181.6z"/>
					<path id="XMLID_1372_" style="fill:#CC882A;" d="M308.189,192.436h-18.466c-0.277,0-0.502-0.225-0.502-0.502v-2.742
						c0-0.277,0.225-0.502,0.502-0.502h18.466c0.277,0,0.502,0.225,0.502,0.502v2.742
						C308.691,192.211,308.467,192.436,308.189,192.436z"/>
					<path id="XMLID_1188_" style="fill:#D6723A;" d="M341.308,181.6c-8.113,0-8.439,0.214-8.439-0.337
						c0-2.611-0.214-3.409,0.337-3.409c8.113,0,8.439-0.214,8.439,0.337C341.644,180.803,341.858,181.6,341.308,181.6z"/>
					<path id="XMLID_1194_" style="fill:#CC882A;" d="M330.786,189.925c-8.113,0-8.439,0.214-8.439-0.337
						c0-2.611-0.214-3.409,0.337-3.409c8.113,0,8.439-0.214,8.439,0.337C331.123,189.128,331.337,189.925,330.786,189.925z"/>
					<path id="XMLID_1187_" style="fill:#D6723A;" d="M341.308,189.925c-8.113,0-8.439,0.214-8.439-0.337
						c0-2.611-0.214-3.409,0.337-3.409c8.113,0,8.439-0.214,8.439,0.337v3.072C341.644,189.774,341.494,189.925,341.308,189.925z"/>
					<path id="XMLID_1196_" style="fill:#CC882A;" d="M330.786,198.25c-8.113,0-8.439,0.214-8.439-0.337
						c0-2.611-0.214-3.409,0.337-3.409c8.113,0,8.439-0.214,8.439,0.337C331.123,197.453,331.337,198.25,330.786,198.25z"/>
					<path id="XMLID_1195_" style="fill:#D6723A;" d="M341.308,198.25c-8.113,0-8.439,0.214-8.439-0.337
						c0-2.611-0.214-3.409,0.337-3.409c8.113,0,8.439-0.214,8.439,0.337C341.644,197.453,341.858,198.25,341.308,198.25z"/>
					<path id="XMLID_1198_" style="fill:#CC882A;" d="M330.786,206.576c-8.113,0-8.439,0.214-8.439-0.337
						c0-2.611-0.214-3.409,0.337-3.409c8.113,0,8.439-0.214,8.439,0.337C331.123,205.779,331.337,206.576,330.786,206.576z"/>
					<path id="XMLID_1197_" style="fill:#D6723A;" d="M341.308,206.576c-8.113,0-8.439,0.214-8.439-0.337
						c0-2.611-0.214-3.409,0.337-3.409c8.113,0,8.439-0.214,8.439,0.337C341.644,205.779,341.858,206.576,341.308,206.576z"/>
					<g id="XMLID_1202_">
						<path style="fill:#EEE4D9;" d="M331.996,204.938c-0.13,0-0.235-0.105-0.235-0.235v-25.108c0-0.13,0.105-0.235,0.235-0.235
							c0.129,0,0.235,0.105,0.235,0.235v25.108C332.23,204.832,332.125,204.938,331.996,204.938z"/>
					</g>
					<path id="XMLID_1365_" style="fill:#D6723A;" d="M346.459,160.717c-5.419,0-5.875,0.189-5.875-0.562
						c0-2.455-0.17-3.183,0.562-3.183c5.419,0,5.875-0.189,5.875,0.562C347.021,159.989,347.192,160.717,346.459,160.717z"/>
					<path id="XMLID_1366_" style="fill:#D6723A;" d="M357.497,160.717c-5.419,0-5.875,0.189-5.875-0.562
						c0-2.455-0.171-3.183,0.562-3.183c5.419,0,5.875-0.189,5.875,0.562C358.059,159.989,358.23,160.717,357.497,160.717z"/>
					<path id="XMLID_1371_" style="fill:#D6723A;" d="M368.535,160.717c-5.419,0-5.875,0.189-5.875-0.562
						c0-2.455-0.17-3.183,0.562-3.183c5.419,0,5.875-0.189,5.875,0.562C369.098,159.989,369.268,160.717,368.535,160.717z"/>
				</g>
			</g>
		</g>
	</g>
	<g id="XMLID_550_">
		<g id="XMLID_848_">
			<circle style="fill:#FFFFFF;" cx="104.076" cy="188.39" r="19.991"/>
			<path style="fill:#D1868D;" d="M104.076,209.379c-11.573,0-20.989-9.415-20.989-20.989s9.416-20.989,20.989-20.989
				s20.989,9.415,20.989,20.989S115.649,209.379,104.076,209.379z M104.076,169.396c-10.473,0-18.994,8.521-18.994,18.994
				s8.52,18.994,18.994,18.994s18.994-8.521,18.994-18.994S114.549,169.396,104.076,169.396z"/>
		</g>
		<g id="XMLID_551_" style="opacity:0.3;">
			<path id="XMLID_557_" style="fill:#72787A;" d="M103.684,170.726c1.482-0.476,2.203,1.767,0.72,2.243
				C102.922,173.444,102.201,171.202,103.684,170.726z"/>
			<path id="XMLID_846_" style="fill:#72787A;" d="M112.511,172.858c1.521,0.329,1.025,2.632-0.498,2.302
				C110.491,174.831,110.988,172.529,112.511,172.858z"/>
			<path id="XMLID_845_" style="fill:#72787A;" d="M119.586,180.115c1.085,1.116-0.602,2.759-1.689,1.642
				C116.812,180.642,118.5,178.998,119.586,180.115z"/>
			<path id="XMLID_844_" style="fill:#72787A;" d="M119.356,188.337c0.015-1.556,2.371-1.535,2.355,0.023
				C121.696,189.916,119.341,189.895,119.356,188.337z"/>
			<path id="XMLID_556_" style="fill:#72787A;" d="M95.576,172.858c-1.521,0.329-1.025,2.632,0.498,2.302
				C97.595,174.831,97.099,172.529,95.576,172.858z"/>
			<path id="XMLID_842_" style="fill:#72787A;" d="M88.501,180.115c-1.085,1.116,0.602,2.759,1.689,1.642
				C91.275,180.642,89.587,178.998,88.501,180.115z"/>
			<path id="XMLID_841_" style="fill:#72787A;" d="M88.731,188.337c-0.015-1.556-2.371-1.535-2.355,0.023
				C86.391,189.916,88.746,189.895,88.731,188.337z"/>
			<path id="XMLID_554_" style="fill:#72787A;" d="M103.688,205.967c1.482,0.476,2.203-1.767,0.72-2.243
				C102.926,203.248,102.205,205.491,103.688,205.967z"/>
			<path id="XMLID_553_" style="fill:#72787A;" d="M112.515,203.835c1.521-0.329,1.025-2.632-0.498-2.302
				C110.495,201.861,110.992,204.164,112.515,203.835z"/>
			<path id="XMLID_838_" style="fill:#72787A;" d="M119.59,196.578c1.085-1.116-0.603-2.759-1.689-1.642
				C116.816,196.051,118.504,197.695,119.59,196.578z"/>
			<path id="XMLID_552_" style="fill:#72787A;" d="M95.58,203.835c-1.521-0.329-1.025-2.632,0.498-2.302
				C97.599,201.861,97.103,204.164,95.58,203.835z"/>
			<path id="XMLID_836_" style="fill:#72787A;" d="M88.505,196.578c-1.085-1.116,0.603-2.759,1.689-1.642
				C91.279,196.051,89.591,197.695,88.505,196.578z"/>
		</g>
		<g id="XMLID_834_">
			<path style="fill:#72787A;" d="M104.033,189.376c-0.091,0-0.181-0.025-0.261-0.074c-0.148-0.091-0.238-0.252-0.238-0.425v-13.03
				c0-0.275,0.223-0.499,0.499-0.499c0.275,0,0.498,0.223,0.498,0.499v12.217l11.117-5.658c0.246-0.126,0.546-0.027,0.671,0.218
				c0.125,0.246,0.028,0.546-0.218,0.671l-11.842,6.027C104.188,189.359,104.111,189.376,104.033,189.376z"/>
		</g>
	</g>
	<g id="XMLID_559_">
		<defs>
			<rect id="XMLID_511_" x="77.604" y="205.129" width="224.223" height="162.822"/>
		</defs>
		<clipPath id="XMLID_00000073703250020433938120000013880939274191951509_">
			<use xlink:href="#XMLID_511_"  style="overflow:visible;"/>
		</clipPath>
		<g id="XMLID_797_" style="clip-path:url(#XMLID_00000073703250020433938120000013880939274191951509_);">
			<g id="XMLID_819_">
				<polygon id="XMLID_549_" style="fill:#72787A;" points="209.458,295.816 180.173,295.816 188.162,278.5 201.468,278.5 				"/>
				<path id="XMLID_548_" style="fill:#9C9FA0;" d="M240.236,280.687c-96.764,0-92.836,0.846-92.836-1.9
					c0-65.05-0.814-62.785,1.9-62.785c96.764,0,92.836-0.846,92.836,1.9C242.136,282.951,242.95,280.687,240.236,280.687z"/>
				<path id="XMLID_830_" style="fill:#2F3D69;" d="M238.123,268.219c-91.958,0-88.609,0.867-88.609-1.9
					c0-49.126-0.806-48.429,1.899-48.429c91.959,0,88.609-0.867,88.609,1.9C240.022,268.916,240.828,268.219,238.123,268.219z"/>
				<path id="XMLID_822_" style="fill:#72787A;" d="M194.636,277.217c-3.477,0-3.481-5.263,0-5.263
					C198.114,271.954,198.117,277.217,194.636,277.217z"/>
				<g id="XMLID_547_">
					<g id="XMLID_1150_">
						<g id="XMLID_1157_">
							<path style="fill:#FFFFFF;" d="M226.999,264.588c-68.378,0-66.959,1.02-66.959-2.497c0-39.894-0.943-40.57,2.497-40.57
								c68.378,0,66.959-1.02,66.959,2.497C229.496,263.911,230.439,264.588,226.999,264.588z"/>
							<path style="fill:#EEE4D9;" d="M176.239,265.041c-12.306,0-15.131-0.217-16.096-1.185c-0.429-0.43-0.424-0.978-0.419-1.557
								l0.001-0.207c0-8.553-0.043-15.25-0.077-20.63c-0.097-14.997-0.12-18.561,1.061-19.749c0.466-0.469,1.077-0.506,1.828-0.506
								c15.447,0,27.106-0.051,36.475-0.092c24.674-0.108,29.119-0.127,30.381,1.139c0.429,0.43,0.424,0.978,0.419,1.557
								l-0.001,0.208c0,8.553,0.043,15.25,0.077,20.63c0.097,14.997,0.12,18.56-1.061,19.749c-0.466,0.469-1.077,0.506-1.828,0.506
								c-15.447,0-27.106,0.051-36.475,0.092C184.715,265.021,180.028,265.041,176.239,265.041z M213.038,221.699
								c-3.77,0-8.385,0.02-14.023,0.045c-9.37,0.041-21.03,0.092-36.478,0.092c-0.642,0-1.086,0.022-1.382,0.32
								c-0.996,1.002-0.968,5.245-0.878,19.3c0.034,5.382,0.077,12.08,0.077,20.635l-0.001,0.213
								c-0.005,0.568,0.003,0.875,0.235,1.107c1.076,1.081,7.189,1.054,29.932,0.954c9.37-0.041,21.03-0.092,36.478-0.092
								c0.642,0,1.086-0.022,1.382-0.32c0.996-1.002,0.968-5.244,0.878-19.3c-0.034-5.382-0.077-12.08-0.077-20.635l0.001-0.213
								c0.005-0.568-0.003-0.875-0.235-1.107C228.138,221.885,224.478,221.699,213.038,221.699z"/>
						</g>
						<g id="XMLID_1156_">
							<path style="fill:#444244;" d="M229.496,223.661H160.04c0-1.181,0.957-2.14,2.14-2.14
								C231.677,221.521,229.496,220.607,229.496,223.661z"/>
							<path style="fill:#444244;" d="M229.811,223.976h-70.085v-0.315c0-1.354,1.101-2.455,2.455-2.455
								c16.13,0,28.614-0.05,37.73-0.087c24.124-0.095,28.471-0.114,29.567,1.002c0.359,0.365,0.348,0.808,0.337,1.276
								c-0.002,0.085-0.004,0.172-0.004,0.263V223.976z M160.382,223.346h68.804c0.008-0.4,0.001-0.62-0.159-0.783
								c-0.909-0.927-6.883-0.901-29.115-0.814c-9.116,0.037-21.601,0.087-37.732,0.087
								C161.281,221.836,160.532,222.489,160.382,223.346z"/>
						</g>
						<g id="XMLID_1151_">
							<path id="XMLID_1155_" style="fill:#BEC0C2;" d="M226.479,223.168h0.911c0.328,0,0.431-1.154,0-1.154h-0.911
								c-0.41,0-0.237,1.22-0.237,0.917C226.242,223.062,226.348,223.168,226.479,223.168z"/>
							<g id="XMLID_1152_">
								<g id="XMLID_1154_">
									<path style="fill:#FFFFFF;" d="M226.53,223.085c-0.045,0-0.09-0.019-0.121-0.057c-0.055-0.067-0.046-0.166,0.021-0.222
										l0.807-0.673c0.066-0.055,0.166-0.047,0.222,0.02c0.055,0.067,0.047,0.166-0.02,0.222l-0.807,0.673
										C226.602,223.073,226.566,223.085,226.53,223.085z"/>
								</g>
								<g id="XMLID_1153_">
									<path style="fill:#FFFFFF;" d="M227.338,223.085c-0.035,0-0.071-0.012-0.101-0.036l-0.807-0.673
										c-0.067-0.056-0.076-0.155-0.021-0.222c0.056-0.068,0.156-0.075,0.222-0.02l0.807,0.673
										c0.067,0.056,0.076,0.155,0.02,0.222C227.427,223.066,227.382,223.085,227.338,223.085z"/>
								</g>
							</g>
						</g>
					</g>
					<g id="XMLID_562_">
						<path id="XMLID_1149_" style="fill:#9EBFD8;" d="M187.2,233.24c-18.32,0-17.777,0.197-17.777-0.437
							c0-1.498-0.129-2.075,0.437-2.075c18.32,0,17.777-0.197,17.777,0.437C187.637,232.663,187.767,233.24,187.2,233.24z"/>
						<path id="XMLID_1148_" style="fill:#9EBFD8;" d="M200.891,255.367c-32.867,0-31.468,0.269-31.468-0.58
							c0-1.156-0.15-1.932,0.58-1.932c32.867,0,31.468-0.269,31.468,0.58C201.471,254.591,201.621,255.367,200.891,255.367z"/>
						<g id="XMLID_827_">
							<path id="XMLID_1147_" style="fill:#D6723A;" d="M167.109,233.268c-1.405,0-2.061,0.141-2.061-0.48
								c0-1.405-0.141-2.061,0.479-2.061c1.405,0,2.061-0.141,2.061,0.479C167.588,232.612,167.729,233.268,167.109,233.268z"/>
							<path id="XMLID_1146_" style="fill:#D6723A;" d="M167.109,238.855c-1.405,0-2.061,0.141-2.061-0.479
								c0-1.405-0.141-2.061,0.479-2.061c1.405,0,2.061-0.141,2.061,0.479C167.588,238.199,167.729,238.855,167.109,238.855z"/>
							<path id="XMLID_1138_" style="fill:#D6723A;" d="M167.109,244.804c-1.405,0-2.061,0.141-2.061-0.48
								c0-1.405-0.141-2.061,0.479-2.061c1.405,0,2.061-0.141,2.061,0.48C167.588,244.148,167.729,244.804,167.109,244.804z"/>
							<path id="XMLID_1137_" style="fill:#D6723A;" d="M167.109,249.679c-1.405,0-2.061,0.141-2.061-0.479
								c0-1.405-0.141-2.061,0.479-2.061c1.405,0,2.061-0.141,2.061,0.479C167.588,249.023,167.729,249.679,167.109,249.679z"/>
							<path id="XMLID_828_" style="fill:#D6723A;" d="M167.109,255.381c-1.405,0-2.061,0.141-2.061-0.479
								c0-1.405-0.141-2.061,0.479-2.061c1.405,0,2.061-0.141,2.061,0.479C167.588,254.725,167.729,255.381,167.109,255.381z"/>
						</g>
						<path id="XMLID_826_" style="opacity:0.8;fill:#514342;" d="M223.724,233.282c-34.855,0-33.73,0.351-33.73-0.764
							c0-0.803-0.155-1.804,0.764-1.804c34.855,0,33.73-0.351,33.73,0.764C224.488,232.281,224.643,233.282,223.724,233.282z"/>
						<path id="XMLID_825_" style="fill:#9EBFD8;" d="M187.2,238.826c-18.32,0-17.777,0.197-17.777-0.437
							c0-1.498-0.129-2.075,0.437-2.075c18.32,0,17.777-0.197,17.777,0.437C187.637,238.249,187.767,238.826,187.2,238.826z"/>
						<path id="XMLID_824_" style="opacity:0.8;fill:#514342;" d="M220.287,238.869c-31.336,0-30.293,0.319-30.293-0.725
							c0-0.882-0.157-1.844,0.725-1.844c31.336,0,30.293-0.319,30.293,0.725C221.012,237.907,221.168,238.869,220.287,238.869z"/>
						<path id="XMLID_823_" style="fill:#9EBFD8;" d="M187.2,244.776c-18.32,0-17.777,0.197-17.777-0.437
							c0-1.498-0.129-2.075,0.437-2.075c18.32,0,17.777-0.197,17.777,0.437C187.637,244.199,187.767,244.776,187.2,244.776z"/>
						<path id="XMLID_821_" style="opacity:0.8;fill:#514342;" d="M214.554,244.818c-25.284,0-24.56,0.282-24.56-0.653
							c0-0.994-0.169-1.915,0.653-1.915c25.284,0,24.56-0.282,24.56,0.653C215.207,243.897,215.377,244.818,214.554,244.818z"/>
						<path id="XMLID_820_" style="opacity:0.8;fill:#514342;" d="M214.554,250.963c-25.284,0-24.56,0.282-24.56-0.653
							c0-0.994-0.169-1.915,0.653-1.915c25.284,0,24.56-0.282,24.56,0.653C215.207,250.042,215.377,250.963,214.554,250.963z"/>
						<path id="XMLID_705_" style="fill:#9EBFD8;" d="M187.2,250.725c-18.32,0-17.777,0.197-17.777-0.437
							c0-1.498-0.129-2.075,0.437-2.075c18.32,0,17.777-0.197,17.777,0.437C187.637,250.148,187.767,250.725,187.2,250.725z"/>
						<path id="XMLID_703_" style="opacity:0.8;fill:#514342;" d="M223.875,255.395c-21.877,0-21.274,0.26-21.274-0.609
							c0-1.029-0.178-1.96,0.609-1.96c21.877,0,21.274-0.26,21.274,0.609C224.483,254.464,224.662,255.395,223.875,255.395z"/>
					</g>
				</g>
			</g>
			<g id="XMLID_798_">
				<path id="XMLID_808_" style="fill:#AE584B;" d="M292.258,316.103c0-21.065,0.184-20.221-0.407-20.221
					c-187.374,0-177.859-0.211-177.859,0.407v19.814C113.993,316.565,292.258,316.885,292.258,316.103z"/>
				<g id="XMLID_805_">
					<g>
						<path id="XMLID_88_" style="fill:#D16A4B;" d="M280.828,312.307c-70.712,0-68.004,0.658-68.004-1.52
							c0-9.74-0.48-11.214,1.52-11.214c70.712,0,68.004-0.658,68.004,1.52C282.347,310.834,282.827,312.307,280.828,312.307z"/>
						<g id="XMLID_87_">
							<path style="fill:#AE584B;" d="M247.585,308.53c-3.533,0-3.537-5.348,0-5.348C251.119,303.182,251.123,308.53,247.585,308.53
								z"/>
						</g>
					</g>
				</g>
				<g id="XMLID_802_">
					<g>
						<path id="XMLID_90_" style="fill:#D16A4B;" d="M205.447,312.307c-70.712,0-68.004,0.658-68.004-1.52
							c0-9.74-0.48-11.214,1.52-11.214c70.712,0,68.004-0.658,68.004,1.52C206.966,310.834,207.447,312.307,205.447,312.307z"/>
						<g id="XMLID_89_">
							<path style="fill:#AE584B;" d="M172.205,308.53c-3.534,0-3.537-5.348,0-5.348C175.738,303.182,175.742,308.53,172.205,308.53
								z"/>
						</g>
					</g>
				</g>
				<rect id="XMLID_801_" x="143.152" y="316.509" style="fill:#D16A4B;" width="126.314" height="5.603"/>
				<path id="XMLID_800_" style="fill:#AE584B;" d="M273.281,317.655l14.781,81.336c0.496,2.731-2.869,2.502-3.32,0.816
					c-22.931-85.817-23.139-83.389-20.433-83.368C272.092,316.502,273.007,316.144,273.281,317.655z"/>
				<path id="XMLID_799_" style="fill:#AE584B;" d="M127.662,317.664c-0.062,0.342-14.839,81.434-14.788,81.778
					c0.419,2.835,3.028,1.489,3.33,0.362c22.992-86.045,23.079-83.385,20.419-83.364
					C128.837,316.502,127.937,316.152,127.662,317.664z"/>
				<path id="XMLID_1_" style="fill:#AE584B;" d="M137.488,333.164c0.106,0.331,25.154,78.86,25.361,79.14
					c1.702,2.306,3.373-0.108,3.109-1.245c-20.123-86.761-18.796-84.454-21.135-83.185
					C137.98,331.586,137.021,331.7,137.488,333.164z"/>
			</g>
		</g>
		<g id="XMLID_796_" style="clip-path:url(#XMLID_00000073703250020433938120000013880939274191951509_);">
			<path style="fill:#84534A;" d="M135.117,307.665l-0.145-0.477c8.509-2.59,7.722-7.086,6.726-12.778
				c-0.93-5.312-2.087-11.924,4.458-18.651l0.357,0.348c-6.367,6.544-5.282,12.746-4.324,18.217
				C143.187,300.024,144.049,304.947,135.117,307.665z"/>
		</g>
		<g id="XMLID_725_" style="clip-path:url(#XMLID_00000073703250020433938120000013880939274191951509_);">
			<g id="XMLID_759_">
				<path id="XMLID_771_" style="fill:#BA3213;" d="M204.908,388.919c1.655,1.22-6.462,9.497-13.465,10.611l-1.56-1.952
					c-0.868-7.164-2.317-4.388,6.526-10.972L204.908,388.919z"/>
				<path id="XMLID_770_" style="fill:#FCBDA9;" d="M216.37,397.579c-7.132,3.99-12.992,12.987-16.727,11.376
					c-3.735-1.616-5.94-12.907-7.98-15.111c0.015-0.016,3.127-3.465,3.142-3.481c0.91-0.129-0.015,0.001,5.436-0.763
					c0.653,0.997,1.207,1.765,1.745,2.354c6.04,6.598,21.647-5.869,23.465-3.631C227.56,390.942,219.304,395.934,216.37,397.579z"/>
				<path id="XMLID_769_" style="opacity:0.5;fill:#D1778E;" d="M222.684,393.42c-1.556,1.277-3.68,2.683-6.314,4.159
					c-7.132,3.99-12.992,12.987-16.727,11.376c-3.735-1.616-5.94-12.907-7.98-15.111c0.015-0.016,3.829-3.566,3.845-3.581
					l4.733-0.663c0.653,0.997,1.207,1.765,1.745,2.354c-0.479,2.304-2.179,7.411-1.621,9.57c1.663,6.418,10.498-3.269,17.191-5.855
					C219.133,395.056,221.247,394.093,222.684,393.42z"/>
				<g id="XMLID_768_">
					<path style="fill:#637690;" d="M204.908,388.919c-1.698-0.085-9.847,2.207-15.025,8.659c0,0-17.911-14.855-26.23-37.775
						l15.535-9.168c0,0,13.158,22.58,17.232,28.607C200.494,385.269,204.908,388.919,204.908,388.919z"/>
					<path style="fill:#3B3348;" d="M189.923,397.98l-0.222-0.184c-0.18-0.149-18.065-15.168-26.316-37.897l-0.08-0.221
						l15.982-9.432l0.143,0.246c0.132,0.226,13.2,22.641,17.223,28.591c4.002,5.921,8.391,9.581,8.435,9.617l0.658,0.544
						l-0.853-0.043c-1.355-0.071-9.487,1.946-14.791,8.553L189.923,397.98z M163.999,359.927
						c7.734,21.102,23.789,35.467,25.847,37.247c4.649-5.629,11.653-8.129,14.359-8.493c-1.295-1.165-4.785-4.494-8.02-9.28
						c-3.805-5.628-15.656-25.904-17.099-28.378L163.999,359.927z"/>
				</g>
				<path id="XMLID_767_" style="fill:#BA3213;" d="M172.99,394.861c-0.743,3.045,15.153,8.563,20.034,4.754l-1.677-11.799
					l-14.102,0.35L172.99,394.861z"/>
				<path id="XMLID_766_" style="fill:#FCBDA9;" d="M200.58,416.117c-9.68-0.035-7.356-2.932-16.936-3.631
					c-9.58-0.698-12.573-2.259-12.353-5.601c0.225-3.347,5.937-12.055,6.558-15.47c9.065,3.294,6.66,2.42,9.456,3.436
					c-1.227,6.645-0.628,9.864,6.683,13.051C202.395,411.565,209.759,416.139,200.58,416.117z"/>
				<path id="XMLID_765_" style="opacity:0.5;fill:#D1778E;" d="M204.436,415.508c-0.568,0.389-1.785,0.613-3.855,0.608
					c-9.68-0.035-7.356-2.932-16.936-3.631c-20.109-1.466-10.726-7.36-6.184-19.719c9.033,1.529,7.077,1.079,9.845,2.085
					c-0.324,1.756-0.524,3.282-0.499,4.628c-10.93,0.742-14.964,8.771-2.015,10.957c4.753,0.808,11.416,4.419,14.089,4.713
					C200.815,415.364,203.244,415.468,204.436,415.508z"/>
				<g id="XMLID_764_">
					<path style="fill:#637690;" d="M196.591,369.312c-3.057,8.234-4.159,24.023-3.566,30.302
						c-1.893-2.842-8.468-7.449-20.034-4.753l7.127-45.837c-19.751-2.411-14.424-1.76-25.041-3.057
						c-3.049-4.401-11.885-17.152-14.942-21.565c11.1-6.542,8.991-5.298,11.8-6.957c4.244,3.137,39.194,8.832,48.645,14.004
						C209.792,336.496,199.643,361.078,196.591,369.312z"/>
					<path style="fill:#3B3348;" d="M193.413,400.707l-0.624-0.936c-1.842-2.764-8.337-7.292-19.734-4.634l-0.408,0.095l0.064-0.415
						l7.082-45.548l-24.876-3.038l-0.073-0.104l-15.115-21.815l3.904-2.301c5.909-3.482,5.909-3.482,7.239-4.268l1.081-0.638
						l0.15,0.111c1.906,1.408,10.582,3.446,19.769,5.604c11.112,2.61,23.706,5.568,28.844,8.379
						c8.777,4.808,0.744,26.033-3.117,36.233c-0.277,0.732-0.528,1.395-0.744,1.976c-2.96,7.973-4.175,23.559-3.549,30.177
						L193.413,400.707z M179.664,393.767c6.768,0,11.081,2.724,13.006,4.924c-0.444-7.113,0.803-21.795,3.656-29.477
						c0.216-0.583,0.467-1.247,0.745-1.98c3.507-9.266,11.719-30.965,3.374-35.536c-5.071-2.775-17.625-5.723-28.701-8.325
						c-9.413-2.211-17.572-4.127-19.82-5.592l-0.762,0.451c-1.331,0.786-1.331,0.786-7.24,4.268l-3.379,1.991l14.695,21.21
						l25.205,3.077l-7.107,45.714C175.64,393.984,177.751,393.767,179.664,393.767z"/>
				</g>
				<path id="XMLID_763_" style="opacity:0.5;fill:#3B3348;" d="M183.45,394.173l-0.319,0.11c-2.723-0.419-6.074-0.369-10.139,0.578
					l7.127-45.837l-16.712-2.04c-0.608-0.298-14.414-7.053-23.943-11.72l0.788-16.582l8.812-1.571
					c5.359,13.78,25.185,25.503,42.241,30.462C184.669,371.948,179.743,385.128,183.45,394.173z"/>
				<g id="XMLID_762_">
					<path style="fill:#3B3348;" d="M184.868,348.848c-0.056,0-0.112,0-0.167-0.001c-0.138-0.002-0.247-0.116-0.246-0.253
						c0.002-0.136,0.113-0.246,0.249-0.246c2.224,0.047,5.758-0.631,8.186-2.168c0.116-0.072,0.271-0.039,0.344,0.078
						c0.074,0.116,0.039,0.271-0.077,0.344C190.703,348.155,187.183,348.848,184.868,348.848z"/>
				</g>
				<path id="XMLID_761_" style="fill:#D1868D;" d="M202.573,404.051c0,0,0.04-0.074,0.12-0.19c0.089-0.113,0.182-0.278,0.289-0.444
					c0.212-0.366,0.41-0.79,0.525-1.274c0.126-0.479,0.203-1.027,0.315-1.464c0.097-0.436,0.238-0.745,0.238-0.745
					s0.193,0.275,0.334,0.718c0.153,0.438,0.246,1.08,0.079,1.741c-0.043,0.163-0.101,0.325-0.176,0.477
					c-0.078,0.15-0.16,0.298-0.267,0.421c-0.098,0.129-0.212,0.237-0.326,0.329c-0.107,0.099-0.237,0.158-0.342,0.222
					c-0.229,0.117-0.429,0.174-0.565,0.186C202.658,404.047,202.573,404.051,202.573,404.051z"/>
				<path id="XMLID_760_" style="fill:#D1868D;" d="M181.065,404.178c0,0,0.015,0.053,0.033,0.146c0.018,0.087,0.03,0.238,0.006,0.4
					c-0.014,0.167-0.072,0.357-0.16,0.549c-0.089,0.192-0.225,0.375-0.377,0.542c-0.164,0.156-0.346,0.295-0.538,0.387
					c-0.193,0.089-0.383,0.149-0.552,0.161c-0.166,0.021-0.307,0.006-0.4-0.014c-0.095-0.021-0.146-0.038-0.146-0.038
					s0.051-0.025,0.136-0.061c0.084-0.035,0.2-0.09,0.328-0.161c0.259-0.138,0.558-0.358,0.817-0.622
					c0.259-0.263,0.478-0.568,0.62-0.827c0.074-0.13,0.128-0.235,0.168-0.326C181.039,404.227,181.065,404.178,181.065,404.178z"/>
			</g>
			<g id="XMLID_750_">
				<path id="XMLID_758_" style="fill:#9C9FA0;" d="M223.456,295.924c2.504-4.16,11.078-6.324,16.129-0.043L223.456,295.924z"/>
				<path id="XMLID_757_" style="fill:#F99889;" d="M213.757,291.934c5.475-3.438,16.935-4.711,20.31-3.374
					c3.374,1.337,6.048,4.329,4.839,5.221c-1.21,0.891-4.966-1.464-7.194-0.573c-6.135,2.454-7.914,5.388-18.463,5.03
					L213.757,291.934z"/>
				<g id="XMLID_756_">
					<path style="fill:#3F6763;" d="M215.662,300.47c-5.663,1.404-27.043,6.647-33.504,7.38
						c-6.421,0.727-20.374-12.007-25.041-16.552c-0.945,2.828-1.954,5.339-3.735,7.895c-2.365,3.388-3.978,11.524-2.853,13.351
						c0.982,1.461,3.631,3.681,3.955,4.902c0.339,1.272-1.781,5.346-11.206,8.064c-11.866-20.36-7.987-13.703-17.315-29.714
						c19.488-28.666,6.295-9.255,21.644-31.833c8.883,0.129,34.223,29.715,36.737,29.265c29.196-5.225,27.677-5.284,28.553-4.309
						c0.956,1.063,2.673,3.423,3.588,7.415C216.92,298.179,217.39,300.041,215.662,300.47z"/>
					<path style="fill:#2E5151;" d="M143.144,325.842l-17.517-30.058l0.101-0.148c10.43-15.343,11.499-16.913,12.592-18.521
						l9.138-13.439l0.152,0.002c5.723,0.083,17.918,11.935,26.823,20.588c4.463,4.337,9.061,8.835,9.861,8.682
						c6.663-1.192,11.725-2.116,15.582-2.819c12.494-2.279,12.497-2.281,13.138-1.509l0.094,0.109
						c0.947,1.055,2.659,3.394,3.601,7.321l0.08,0.322c0.426,1.821,0.908,3.884-1.06,4.372c-6.245,1.549-27.122,6.659-33.54,7.387
						c-6.766,0.771-21.311-12.807-24.947-16.319c-0.94,2.76-1.943,5.123-3.628,7.541c-2.369,3.394-3.865,11.28-2.859,13.015
						c0.399,0.595,1.082,1.322,1.742,2.025c1.054,1.124,2.05,2.185,2.261,2.978c0.397,1.489-1.922,5.675-11.401,8.409
						L143.144,325.842z M126.297,295.807l17.114,29.368c9.079-2.668,11.097-6.539,10.799-7.657
						c-0.174-0.656-1.211-1.761-2.126-2.736c-0.658-0.702-1.284-1.368-1.698-1.951h-0.135l-0.004-0.21
						c-1.147-2.111,0.578-10.261,2.902-13.591c1.732-2.485,2.732-4.925,3.699-7.822l0.143-0.428l0.323,0.315
						c8.182,7.969,19.585,17.063,24.811,16.474c6.384-0.724,27.231-5.827,33.468-7.373c1.304-0.324,1.137-1.567,0.672-3.577
						c-0.001,0-0.056-0.22-0.056-0.22c-0.902-3.935-2.594-6.256-3.522-7.289c-0.039-0.044-0.074-0.085-0.107-0.125
						c-0.422-0.506-0.656-0.474-12.602,1.704c-3.857,0.704-8.921,1.627-15.585,2.82c-1.019,0.184-4.084-2.738-10.355-8.833
						c-8.756-8.51-20.719-20.136-26.285-20.423l-8.965,13.184C137.699,279.037,136.633,280.603,126.297,295.807z"/>
				</g>
				<path id="XMLID_755_" style="opacity:0.5;fill:#2E5151;" d="M216.889,299.997c0,0-27.42,6.877-34.89,7.725
					c-5.286,0.598-15.62-7.93-21.221-12.977c-0.454-0.566-5.585-5.428-6.453-5.102c-2.035,0.763-5.476,9.037-6.493,13.495
					c-0.783,3.441,0.02,6.728,2.538,9.276c0.982,1.461,3.631,3.681,3.955,4.902c0.339,1.272-1.78,5.346-11.206,8.064
					c-11.377-19.521-9.453-15.769-11.331-20.971c1.075-6.334,3.656-21.535,4.713-27.759c6.536-4.357,2.036-1.357,12.987-8.658
					c3.945,2.419,10.313,14.897,13.879,20.118c3.566,5.221,14.004,16.044,18.462,16.298c3.945,0.224,28.801-6.618,34.496-8.204
					C216.595,297.339,216.789,298.596,216.889,299.997z"/>
				<g id="XMLID_754_">
					<path style="fill:#2E5151;" d="M181.001,296.927c-0.036,0-0.074-0.008-0.108-0.025c-0.124-0.06-0.176-0.209-0.116-0.333
						c0.41-0.852,1.759-2.957,1.99-3.187c0.098-0.096,0.254-0.096,0.351,0c0.097,0.096,0.098,0.254,0.002,0.352
						c-0.153,0.157-1.474,2.181-1.893,3.052C181.183,296.875,181.094,296.927,181.001,296.927z"/>
				</g>
				<g id="XMLID_753_">
					<path style="fill:#2E5151;" d="M184.216,296.799c-0.106,0-0.204-0.068-0.238-0.174c-0.005-0.018-0.568-1.794-0.869-2.304
						c-0.07-0.118-0.03-0.271,0.089-0.341c0.117-0.069,0.272-0.03,0.341,0.089c0.329,0.559,0.89,2.331,0.914,2.406
						c0.042,0.132-0.031,0.272-0.163,0.313C184.267,296.796,184.241,296.799,184.216,296.799z"/>
				</g>
				<g id="XMLID_752_">
					<path style="fill:#2E5151;" d="M157.116,291.547c-0.069,0-0.137-0.028-0.187-0.084c-0.348-0.392-3.414-3.844-3.671-4.229
						c-0.076-0.115-0.045-0.269,0.069-0.346c0.114-0.076,0.27-0.045,0.346,0.069c0.18,0.269,2.268,2.644,3.629,4.175
						c0.091,0.103,0.082,0.261-0.021,0.352C157.234,291.526,157.175,291.547,157.116,291.547z"/>
				</g>
				<g id="XMLID_751_">
					<path style="fill:#2E5151;" d="M151.513,314.721c-0.034,0-0.069-0.007-0.102-0.022c-2.402-1.076-6.852-1.757-6.896-1.763
						c-0.136-0.021-0.23-0.148-0.21-0.284c0.021-0.137,0.153-0.225,0.284-0.21c0.185,0.028,4.561,0.697,7.025,1.802
						c0.126,0.056,0.182,0.204,0.126,0.329C151.699,314.667,151.608,314.721,151.513,314.721z"/>
				</g>
			</g>
			<g id="XMLID_741_">
				<path id="XMLID_749_" style="fill:#F99889;" d="M150.983,231.451c0.703,8.72,7.647,9.274,1.273,11.524
					c0,0,1.019,7.831-5.412,9.805l-6.176-11.683l4.393-8.054L150.983,231.451z"/>
				<path id="XMLID_748_" style="fill:#4D3930;" d="M152.958,265.364c-1.022,7.471-8.319,9.166-10.483,18.253
					c-2.164,9.082,4.369,10.014,3.646,18.547c-0.718,8.528-8.952,11.121-8.952,11.121c-0.073-0.055-38.84-29.029-38.84-29.12
					c0.13,0-1.376-3.456,6.688-7.7c8.1-4.055-5.412-13.227,1.207-21.584c5.795-7.321,10.912,3.227,14.139-18.378
					c3.222-21.604,18.293-21.181,23.385-17.49c15.03,0.722,12.138,11.948,2.035,23.175
					C140.096,248.512,153.975,257.893,152.958,265.364z"/>
				<path id="XMLID_747_" style="fill:#44322B;" d="M152.958,265.364c-1.022,7.471-8.319,9.166-10.483,18.253
					c-2.164,9.082,4.369,10.014,3.646,18.547c-0.718,8.528-8.952,11.121-8.952,11.121c-0.009-0.007-0.061-0.04-0.065-0.045
					l-13.351-30.177c-7.23-14.111,8.187-18.423,14.348-28.776c4.244-7.132,1.696-13.924,3.142-18.083
					c1.441-4.159,7.301-0.339,9.76-6.957c1.945-5.227-0.289-7.969-1.317-8.892c9.268,3.911,2.837,14.341-3.905,21.834
					C140.096,248.512,153.975,257.893,152.958,265.364z"/>
				<path id="XMLID_746_" style="fill:#44322B;" d="M116.457,284.166l-12.353,4.369c-3.476-2.613-5.775-4.349-5.775-4.369
					c0.13,0-1.376-3.456,6.688-7.7c0.05-0.025,0.1-0.055,0.15-0.085c5.326-0.838,8.368-3.092,6.533-7.75
					c-4.525-11.512,12.56-10.828,11.884-21.984c0,0,3.057,8.618-5.601,13.326C108.422,265.175,125.696,277.273,116.457,284.166z"/>
				<path id="XMLID_745_" style="fill:#F99889;" d="M148.457,239.94c-1.137-4.722-7.969-2.214-2.589,6.154L148.457,239.94z"/>
				<path id="XMLID_744_" style="fill:#382823;" d="M144.552,244.524c0,0-0.016,0.154-0.046,0.442
					c-0.03,0.288-0.089,0.711-0.073,1.249c-0.021,0.535,0.039,1.188,0.127,1.93c0.106,0.741,0.265,1.57,0.477,2.467
					c0.212,0.897,0.481,1.861,0.774,2.881c0.288,1.021,0.613,2.095,0.859,3.237c0.253,1.137,0.476,2.336,0.477,3.585
					c-0.002,1.239-0.187,2.54-0.788,3.691c-0.583,1.137-1.371,2.122-2.163,3.053c-0.798,0.93-1.622,1.8-2.407,2.649
					c-1.574,1.691-3.022,3.289-3.988,4.853c-0.484,0.778-0.862,1.531-1.119,2.229c-0.263,0.697-0.394,1.339-0.448,1.872
					c-0.033,0.267-0.047,0.506-0.045,0.715c-0.007,0.209-0.006,0.387,0.01,0.531c0.021,0.289,0.033,0.443,0.033,0.443
					s-0.022-0.153-0.064-0.44c-0.027-0.143-0.04-0.322-0.047-0.533c-0.019-0.211-0.018-0.453,0.002-0.725
					c0.027-0.543,0.126-1.204,0.358-1.93c0.224-0.727,0.571-1.52,1.046-2.326c0.944-1.619,2.335-3.312,3.898-5.02
					c0.778-0.859,1.59-1.735,2.366-2.659c0.772-0.923,1.526-1.896,2.061-2.966c0.266-0.519,0.489-1.085,0.586-1.669l0.096-0.433
					l0.039-0.444c0.025-0.296,0.064-0.589,0.044-0.887c0.013-1.187-0.19-2.36-0.429-3.482c-0.487-2.245-1.096-4.329-1.464-6.153
					c-0.193-0.911-0.309-1.759-0.376-2.513c-0.05-0.756-0.077-1.415-0.028-1.96c0.009-0.546,0.105-0.96,0.152-1.246
					C144.526,244.676,144.552,244.524,144.552,244.524z"/>
				<g id="XMLID_743_">
					<path style="fill:#382823;" d="M111.361,279.696c-0.118,0-0.228-0.074-0.268-0.191c-1.322-3.86,0.495-6.078,2.251-8.223
						c1.163-1.42,2.261-2.761,2.489-4.553c0.265-2.084-0.869-3.779-2.181-5.742c-1.525-2.28-3.253-4.864-3.253-8.737
						c0-4.396,3.7-7.464,6.672-9.928c1.886-1.564,3.514-2.914,3.514-4.078c0-0.156,0.127-0.283,0.283-0.283
						c0.156,0,0.283,0.127,0.283,0.283c0,1.43-1.641,2.791-3.719,4.514c-2.881,2.389-6.467,5.362-6.467,9.492
						c0,3.701,1.677,6.209,3.157,8.422c1.319,1.972,2.565,3.835,2.273,6.129c-0.249,1.954-1.451,3.421-2.613,4.841
						c-1.734,2.118-3.373,4.118-2.154,7.68c0.051,0.148-0.028,0.309-0.176,0.36C111.422,279.691,111.391,279.696,111.361,279.696z"
						/>
				</g>
				<g id="XMLID_742_">
					<path style="fill:#382823;" d="M133.092,298.202c-0.066,0-0.133-0.023-0.187-0.07c-0.117-0.103-0.129-0.282-0.026-0.4
						c0.024-0.028,2.378-2.805,1.968-8.792c-0.133-1.941-1.783-3.847-3.531-5.865c-3.608-4.166-8.099-9.35-0.984-17.515
						c9.847-11.3,8.629-15.309,6.942-20.857l-0.209-0.692c-0.045-0.15,0.04-0.308,0.19-0.352c0.149-0.045,0.308,0.04,0.353,0.19
						l0.209,0.689c1.739,5.723,2.995,9.858-7.057,21.394c-6.793,7.794-2.661,12.565,0.985,16.773
						c1.811,2.091,3.522,4.066,3.668,6.197c0.427,6.242-2.004,9.086-2.107,9.204C133.249,298.169,133.171,298.202,133.092,298.202z"
						/>
				</g>
			</g>
			<g id="XMLID_512_">
				<g id="XMLID_730_">
					<path id="XMLID_738_" style="fill:#626B6D;" d="M118.332,415.871c0,2.321-1.881,4.202-4.202,4.202
						c-2.321,0-4.202-1.881-4.202-4.202C109.928,410.319,118.332,410.313,118.332,415.871z"/>
					<path id="XMLID_735_" style="fill:#2E5151;" d="M152.786,420.158c-5.553,0-5.558-8.404,0-8.404
						C158.339,411.754,158.345,420.158,152.786,420.158z"/>
					<path id="XMLID_734_" style="fill:#626B6D;" d="M154.16,414.28h-2.494c0-4.687,0.765-10.043-4.335-10.043
						c-7.678,0-6.828-8.372-6.828-10.627h2.494C142.998,410.74,154.16,391.645,154.16,414.28z"/>
					<path id="XMLID_733_" style="fill:#626B6D;" d="M130.681,420.158c5.553,0,5.558-8.404,0-8.404
						C125.128,411.754,125.123,420.158,130.681,420.158z"/>
					<path id="XMLID_732_" style="fill:#626B6D;" d="M131.8,414.28h-2.494c0-22.714,11.163-3.472,11.163-20.671h2.493
						c0,1.517,1.067,10.627-6.828,10.627c-2.39,0-4.335,1.945-4.335,4.334V414.28z"/>
				</g>
				<g id="XMLID_727_">
					<g id="XMLID_729_">
						<path style="fill:#FEAE65;" d="M184.706,348.595c-14.348,16.044-44.396,14.433-57.981,13.415
							c-13.58-1.017-17.994-4.498-22.836-15.535c-4.838-11.037-10.947-38.371-9.251-52.969c2.027-17.455,19.872-16.629,27.22-12.737
							c13.964,7.369,14.522,22.208,24.562,46.52c8.167,19.778,23.194,20.533,33.673,21.121
							C182.796,348.56,184.706,348.595,184.706,348.595z"/>
						<path style="fill:#D16A4B;" d="M140.551,362.895c-5.813,0-10.747-0.37-13.847-0.601c-13.293-0.996-18.038-4.225-23.075-15.704
							c-4.916-11.215-10.976-38.46-9.273-53.116c0.72-6.202,3.57-10.778,8.24-13.234c6.149-3.234,14.58-2.271,19.394,0.279
							c10.128,5.345,13.243,14.493,17.957,28.341c1.833,5.381,3.909,11.48,6.734,18.322c8.062,19.524,22.64,20.341,33.284,20.938
							l0.143,0.008c2.666,0.147,4.583,0.183,4.602,0.184l0.618,0.011l-0.412,0.461C174.282,360.676,154.788,362.895,140.551,362.895
							z M111.698,278.747c-3.049,0-6.166,0.589-8.838,1.994c-4.562,2.399-7.233,6.705-7.941,12.798
							c-1.692,14.568,4.338,41.664,9.229,52.822c4.928,11.231,9.574,14.391,22.598,15.367c10.526,0.789,42.359,3.174,57.331-12.865
							c-0.777-0.022-2.224-0.071-4-0.169l-0.143-0.008c-10.186-0.572-25.578-1.435-33.776-21.288
							c-2.832-6.858-4.912-12.966-6.747-18.355c-4.671-13.719-7.756-22.783-17.686-28.022
							C119.135,279.648,115.469,278.747,111.698,278.747z"/>
					</g>
					<path id="XMLID_728_" style="fill:#E0DFEA;" d="M184.706,348.595c-14.348,16.044-44.396,14.433-57.981,13.415
						c-13.58-1.017-17.994-4.498-22.836-15.535c-4.838-11.037-10.947-38.371-9.251-52.969c2.027-17.455,19.872-16.629,27.22-12.737
						c-1.596,0.04-3.865,0.613-6.339,2.828c-4.708,4.209,3.466,56.974,9.411,65.023c5.945,8.049,23.16,9.286,32.447,7.68
						c7.546-1.307,18.767-6.129,22.717-7.89C182.796,348.56,184.706,348.595,184.706,348.595z"/>
				</g>
			</g>
		</g>
	</g>
	<g id="XMLID_1231_">
		<g id="XMLID_1383_">
			<path style="fill:#FFFFFF;" d="M302.333,315.58c80.315,0,75.771,0.499,76.087-1.1c8.361-42.25,8.958-41.844,6.62-41.844
				c-80.315,0-75.771-0.5-76.087,1.099C300.592,315.987,299.995,315.58,302.333,315.58z"/>
			<path style="fill:#EEE4D9;" d="M362.437,316.181c-4.059,0-9.147-0.01-15.526-0.023c-10.634-0.021-25.197-0.05-44.577-0.05h-0.065
				c-0.456,0-0.96,0.001-1.309-0.425c-0.798-0.975-0.299-3.444,2.955-19.504c1.176-5.805,2.639-13.031,4.522-22.545
				c0.011-0.056,0.012-0.108,0.013-0.156c0.04-1.052,0.668-1.242,4.475-1.352c3.943-0.115,11.826-0.099,27.538-0.066
				c10.634,0.021,25.198,0.05,44.577,0.05h0.065c0.447-0.003,0.959-0.001,1.309,0.425c0.798,0.975,0.299,3.444-2.955,19.504
				c-1.176,5.805-2.639,13.031-4.522,22.545c-0.011,0.056-0.012,0.108-0.013,0.156c-0.04,1.052-0.667,1.242-4.475,1.352
				C372.107,316.159,368.373,316.181,362.437,316.181z M302.333,315.053c19.381,0,33.945,0.029,44.58,0.051
				c23.414,0.049,30.08,0.061,30.957-0.366c0.001-0.013,0.001-0.026,0.001-0.038c0.004-0.1,0.009-0.206,0.032-0.321
				c1.883-9.516,3.347-16.742,4.523-22.549c2.6-12.834,3.676-18.146,3.171-18.629c-0.054-0.038-0.314-0.042-0.49-0.036h-0.067
				c-19.381,0-33.945-0.029-44.58-0.051c-23.416-0.048-30.08-0.06-30.956,0.367c-0.001,0.012-0.001,0.025-0.001,0.038
				c-0.004,0.099-0.009,0.206-0.032,0.32c-1.883,9.516-3.347,16.742-4.523,22.549c-2.6,12.834-3.676,18.145-3.171,18.628
				c0.054,0.038,0.315,0.044,0.49,0.037H302.333z"/>
		</g>
		<g id="XMLID_1232_">
			<path id="XMLID_1382_" style="opacity:0.5;fill:#9EBFD8;" d="M372.327,287.725c3.821,0,5.476,0.349,5.476-1.262
				c0-3.821,0.349-5.476-1.262-5.476c-3.821,0-5.476-0.349-5.476,1.262C371.065,286.069,370.716,287.725,372.327,287.725z"/>
			<path id="XMLID_1381_" style="fill:#9EBFD8;" d="M335.724,287.725c26.95,0,27.001,0.518,27.001-1.262
				c0-3.821,0.349-5.476-1.262-5.476c-26.95,0-27.001-0.518-27.001,1.262v4.214C334.462,287.159,335.027,287.725,335.724,287.725z"
				/>
			<path id="XMLID_1380_" style="fill:#CC882A;" d="M314.552,287.725c10.558,0,11.739,0.421,11.739-1.262
				c0-3.821,0.349-5.476-1.262-5.476c-10.558,0-11.739-0.421-11.739,1.262C313.29,286.069,312.941,287.725,314.552,287.725z"/>
			<path id="XMLID_1379_" style="opacity:0.5;fill:#9EBFD8;" d="M370.306,297.065c3.821,0,5.476,0.349,5.476-1.262
				c0-3.821,0.349-5.476-1.262-5.476c-3.821,0-5.476-0.349-5.476,1.262C369.044,295.41,368.695,297.065,370.306,297.065z"/>
			<path id="XMLID_1378_" style="fill:#9EBFD8;" d="M333.703,297.065c26.95,0,27.001,0.518,27.001-1.262
				c0-3.821,0.349-5.476-1.262-5.476c-26.95,0-27.001-0.518-27.001,1.262C332.441,295.41,332.092,297.065,333.703,297.065z"/>
			<path id="XMLID_1236_" style="fill:#CC882A;" d="M312.532,297.065c10.558,0,11.739,0.421,11.739-1.262
				c0-3.821,0.349-5.476-1.262-5.476c-10.558,0-11.739-0.421-11.739,1.262C311.27,295.41,310.921,297.065,312.532,297.065z"/>
			<path id="XMLID_1235_" style="opacity:0.5;fill:#9EBFD8;" d="M368.607,307.232c3.821,0,5.476,0.349,5.476-1.262
				c0-3.821,0.349-5.476-1.262-5.476c-3.821,0-5.476-0.349-5.476,1.262C367.344,305.576,366.996,307.232,368.607,307.232z"/>
			<path id="XMLID_1234_" style="fill:#9EBFD8;" d="M332.004,307.232c26.95,0,27.001,0.518,27.001-1.262
				c0-3.821,0.349-5.476-1.262-5.476c-26.95,0-27.001-0.518-27.001,1.262C330.741,305.576,330.393,307.232,332.004,307.232z"/>
			<path id="XMLID_1233_" style="fill:#CC882A;" d="M310.832,307.232c10.558,0,11.739,0.421,11.739-1.262
				c0-3.821,0.349-5.476-1.262-5.476c-10.558,0-11.739-0.421-11.739,1.262C309.57,305.576,309.221,307.232,310.832,307.232z"/>
		</g>
	</g>
</g>
</svg>
